M48
;Layer_Color=9474304
;FILE_FORMAT=2:4
INCH
;TYPE=PLATED
T1F00S00C0.0219
T2F00S00C0.0276
T3F00S00C0.0280
T4F00S00C0.0350
T5F00S00C0.0354
T6F00S00C0.0394
T7F00S00C0.0906
;TYPE=NON_PLATED
T8F00S00C0.1260
%
T01
X044000Y030816
Y032737
T02
X031250Y027000
X032250
X033250
X034248
X033750Y028000
X034750
X032750
X031750
T03
X033200Y029300
Y030100
Y030900
X038300Y031100
X038800Y030400
X039800Y032400
X040400Y033000
X042800Y031400
X044600Y032000
X044700Y037900
Y039700
Y041500
X046200Y040500
Y038800
X046100Y036900
X040400Y037100
X039600
X038800
X033400Y036700
X032900Y036100
X032100Y036300
X031400Y036000
X032500Y037100
X036600Y031500
X047800Y034800
X047500Y035500
X047200Y036100
X047400Y037900
Y039700
Y041500
T04
X030000Y038000
Y039000
Y040000
Y041000
Y042000
X032000
Y041000
Y040000
Y039000
Y038000
X033100
Y039000
Y040000
Y041000
Y042000
X035100
Y041000
Y040000
Y039000
Y038000
X036200
Y039000
Y040000
Y041000
Y042000
X038200
Y041000
Y040000
Y039000
Y038000
X039300
Y039000
Y040000
Y041000
Y042000
X041300
Y041000
Y040000
Y039000
Y038000
T05
X048100Y029000
Y030000
Y031000
X040880Y025831
Y024846
X040092
X039108
X038320
Y025831
X048100Y032000
Y033000
Y034000
T06
X045408Y026606
Y027394
X046392
Y026606
T07
X048270Y025539
X043530
X039600Y023370
T08
X035250Y024500
X030750
M30
