%FSAX24Y24*%
%MOIN*%
G70*
G01*
G75*
G04 Layer_Physical_Order=2*
G04 Layer_Color=16711680*
%ADD10R,0.0472X0.0551*%
%ADD11R,0.0551X0.0472*%
%ADD12O,0.0217X0.0689*%
%ADD13O,0.0689X0.0217*%
%ADD14R,0.0433X0.0669*%
%ADD15C,0.0150*%
%ADD16C,0.0100*%
%ADD17C,0.0200*%
%ADD18C,0.0472*%
%ADD19C,0.1181*%
%ADD20C,0.0669*%
%ADD21C,0.1378*%
%ADD22C,0.0630*%
%ADD23R,0.0600X0.0600*%
%ADD24C,0.0600*%
%ADD25R,0.0591X0.0591*%
%ADD26C,0.0591*%
%ADD27C,0.0394*%
%ADD28C,0.0551*%
%ADD29C,0.0500*%
%ADD30R,0.0236X0.0453*%
G36*
X050867Y020633D02*
X027633D01*
Y044367D01*
X050867D01*
Y020633D01*
D02*
G37*
%LPC*%
G36*
X048100Y030379D02*
X048002Y030366D01*
X047911Y030328D01*
X047832Y030268D01*
X047772Y030189D01*
X047734Y030098D01*
X047732Y030084D01*
X047000D01*
X046941Y030072D01*
X046930Y030070D01*
X046870Y030030D01*
X046262Y029422D01*
X046223Y029362D01*
X046220Y029351D01*
X046209Y029292D01*
Y027766D01*
X046183Y027756D01*
X046096Y027689D01*
X046030Y027603D01*
X045988Y027502D01*
X045974Y027394D01*
X045988Y027285D01*
X046030Y027185D01*
X046096Y027098D01*
X046141Y027064D01*
X046173Y026986D01*
X046082Y026916D01*
X046012Y026825D01*
X045969Y026720D01*
X045960Y026656D01*
X046824D01*
X046816Y026720D01*
X046772Y026825D01*
X046702Y026916D01*
X046611Y026986D01*
X046644Y027064D01*
X046688Y027098D01*
X046754Y027185D01*
X046796Y027285D01*
X046810Y027394D01*
X046796Y027502D01*
X046754Y027603D01*
X046688Y027689D01*
X046601Y027756D01*
X046576Y027766D01*
Y029216D01*
X047076Y029716D01*
X047853D01*
X047911Y029672D01*
X048002Y029634D01*
X048100Y029621D01*
X048198Y029634D01*
X048289Y029672D01*
X048368Y029732D01*
X048428Y029811D01*
X048466Y029902D01*
X048479Y030000D01*
X048466Y030098D01*
X048428Y030189D01*
X048368Y030268D01*
X048289Y030328D01*
X048198Y030366D01*
X048100Y030379D01*
D02*
G37*
G36*
X048475Y029375D02*
X047725D01*
Y028625D01*
X048475D01*
Y029375D01*
D02*
G37*
G36*
X033800Y028372D02*
Y028050D01*
X034122D01*
X034116Y028098D01*
X034078Y028189D01*
X034018Y028268D01*
X033939Y028328D01*
X033848Y028366D01*
X033800Y028372D01*
D02*
G37*
G36*
X048492Y030950D02*
X048150D01*
Y030608D01*
X048203Y030615D01*
X048299Y030655D01*
X048382Y030718D01*
X048445Y030801D01*
X048485Y030897D01*
X048492Y030950D01*
D02*
G37*
G36*
X048050D02*
X047708D01*
X047715Y030897D01*
X047755Y030801D01*
X047818Y030718D01*
X047901Y030655D01*
X047997Y030615D01*
X048050Y030608D01*
Y030950D01*
D02*
G37*
G36*
X044000Y031135D02*
X043917Y031124D01*
X043841Y031092D01*
X043774Y031041D01*
X043724Y030975D01*
X043692Y030898D01*
X043681Y030816D01*
X043692Y030733D01*
X043724Y030656D01*
X043774Y030590D01*
X043841Y030540D01*
X043917Y030508D01*
X044000Y030497D01*
X044083Y030508D01*
X044159Y030540D01*
X044226Y030590D01*
X044276Y030656D01*
X044308Y030733D01*
X044319Y030816D01*
X044308Y030898D01*
X044276Y030975D01*
X044226Y031041D01*
X044159Y031092D01*
X044083Y031124D01*
X044000Y031135D01*
D02*
G37*
G36*
X033700Y028372D02*
X033652Y028366D01*
X033561Y028328D01*
X033482Y028268D01*
X033422Y028189D01*
X033384Y028098D01*
X033378Y028050D01*
X033700D01*
Y028372D01*
D02*
G37*
G36*
X034122Y027950D02*
X033800D01*
Y027628D01*
X033848Y027634D01*
X033939Y027672D01*
X034018Y027732D01*
X034078Y027811D01*
X034116Y027902D01*
X034122Y027950D01*
D02*
G37*
G36*
X033700D02*
X033378D01*
X033384Y027902D01*
X033422Y027811D01*
X033482Y027732D01*
X033561Y027672D01*
X033652Y027634D01*
X033700Y027628D01*
Y027950D01*
D02*
G37*
G36*
X034298Y027372D02*
Y027050D01*
X034621D01*
X034614Y027098D01*
X034576Y027189D01*
X034516Y027268D01*
X034438Y027328D01*
X034346Y027366D01*
X034298Y027372D01*
D02*
G37*
G36*
X034750Y028359D02*
X034657Y028346D01*
X034571Y028311D01*
X034496Y028254D01*
X034439Y028179D01*
X034404Y028093D01*
X034391Y028000D01*
X034404Y027907D01*
X034439Y027821D01*
X034496Y027746D01*
X034571Y027689D01*
X034657Y027654D01*
X034750Y027641D01*
X034843Y027654D01*
X034929Y027689D01*
X035004Y027746D01*
X035061Y027821D01*
X035096Y027907D01*
X035109Y028000D01*
X035096Y028093D01*
X035061Y028179D01*
X035004Y028254D01*
X034929Y028311D01*
X034843Y028346D01*
X034750Y028359D01*
D02*
G37*
G36*
X032750D02*
X032657Y028346D01*
X032571Y028311D01*
X032496Y028254D01*
X032439Y028179D01*
X032404Y028093D01*
X032391Y028000D01*
X032404Y027907D01*
X032439Y027821D01*
X032496Y027746D01*
X032571Y027689D01*
X032657Y027654D01*
X032750Y027641D01*
X032843Y027654D01*
X032929Y027689D01*
X033004Y027746D01*
X033061Y027821D01*
X033096Y027907D01*
X033109Y028000D01*
X033096Y028093D01*
X033061Y028179D01*
X033004Y028254D01*
X032929Y028311D01*
X032843Y028346D01*
X032750Y028359D01*
D02*
G37*
G36*
X031750D02*
X031657Y028346D01*
X031571Y028311D01*
X031496Y028254D01*
X031439Y028179D01*
X031404Y028093D01*
X031391Y028000D01*
X031404Y027907D01*
X031439Y027821D01*
X031496Y027746D01*
X031571Y027689D01*
X031657Y027654D01*
X031750Y027641D01*
X031843Y027654D01*
X031929Y027689D01*
X032004Y027746D01*
X032061Y027821D01*
X032096Y027907D01*
X032109Y028000D01*
X032096Y028093D01*
X032061Y028179D01*
X032004Y028254D01*
X031929Y028311D01*
X031843Y028346D01*
X031750Y028359D01*
D02*
G37*
G36*
X048100Y032379D02*
X048002Y032366D01*
X047911Y032328D01*
X047832Y032268D01*
X047772Y032189D01*
X047734Y032098D01*
X047721Y032000D01*
X047734Y031902D01*
X047772Y031811D01*
X047832Y031732D01*
X047911Y031672D01*
X048002Y031634D01*
X048100Y031621D01*
X048198Y031634D01*
X048289Y031672D01*
X048368Y031732D01*
X048428Y031811D01*
X048466Y031902D01*
X048479Y032000D01*
X048466Y032098D01*
X048428Y032189D01*
X048368Y032268D01*
X048289Y032328D01*
X048198Y032366D01*
X048100Y032379D01*
D02*
G37*
G36*
X036650Y031846D02*
Y031550D01*
X036946D01*
X036941Y031591D01*
X036906Y031677D01*
X036850Y031750D01*
X036777Y031806D01*
X036691Y031841D01*
X036650Y031846D01*
D02*
G37*
G36*
X042850Y031746D02*
Y031450D01*
X043146D01*
X043141Y031491D01*
X043106Y031577D01*
X043050Y031650D01*
X042977Y031706D01*
X042891Y031741D01*
X042850Y031746D01*
D02*
G37*
G36*
X044550Y032346D02*
X044509Y032341D01*
X044423Y032306D01*
X044350Y032250D01*
X044294Y032177D01*
X044259Y032091D01*
X044254Y032050D01*
X044550D01*
Y032346D01*
D02*
G37*
G36*
X044946Y031950D02*
X044650D01*
Y031654D01*
X044691Y031659D01*
X044777Y031694D01*
X044850Y031750D01*
X044906Y031823D01*
X044941Y031909D01*
X044946Y031950D01*
D02*
G37*
G36*
X044550D02*
X044254D01*
X044259Y031909D01*
X044294Y031823D01*
X044350Y031750D01*
X044423Y031694D01*
X044509Y031659D01*
X044550Y031654D01*
Y031950D01*
D02*
G37*
G36*
X042750Y031746D02*
X042709Y031741D01*
X042623Y031706D01*
X042550Y031650D01*
X042494Y031577D01*
X042459Y031491D01*
X042454Y031450D01*
X042750D01*
Y031746D01*
D02*
G37*
G36*
X048150Y031392D02*
Y031050D01*
X048492D01*
X048485Y031103D01*
X048445Y031199D01*
X048382Y031282D01*
X048299Y031345D01*
X048203Y031385D01*
X048150Y031392D01*
D02*
G37*
G36*
X048050D02*
X047997Y031385D01*
X047901Y031345D01*
X047818Y031282D01*
X047755Y031199D01*
X047715Y031103D01*
X047708Y031050D01*
X048050D01*
Y031392D01*
D02*
G37*
G36*
X035672Y036663D02*
X035276D01*
Y036051D01*
X035341D01*
Y031529D01*
X034845Y031033D01*
X033502D01*
X033488Y031066D01*
X033435Y031135D01*
X033366Y031188D01*
X033286Y031222D01*
X033200Y031233D01*
X033114Y031222D01*
X033034Y031188D01*
X032965Y031135D01*
X032912Y031066D01*
X032878Y030986D01*
X032867Y030900D01*
X032878Y030814D01*
X032912Y030734D01*
X032965Y030665D01*
X033034Y030612D01*
X033114Y030578D01*
X033200Y030567D01*
X033286Y030578D01*
X033366Y030612D01*
X033435Y030665D01*
X033488Y030734D01*
X033502Y030767D01*
X034900D01*
X034951Y030778D01*
X034994Y030806D01*
X035568Y031380D01*
X035596Y031423D01*
X035607Y031474D01*
Y036051D01*
X035672D01*
Y036663D01*
D02*
G37*
G36*
X036946Y031450D02*
X036650D01*
Y031154D01*
X036691Y031159D01*
X036777Y031194D01*
X036850Y031250D01*
X036906Y031323D01*
X036941Y031409D01*
X036946Y031450D01*
D02*
G37*
G36*
X043146Y031350D02*
X042850D01*
Y031054D01*
X042891Y031059D01*
X042977Y031094D01*
X043050Y031150D01*
X043106Y031223D01*
X043141Y031309D01*
X043146Y031350D01*
D02*
G37*
G36*
X042750D02*
X042454D01*
X042459Y031309D01*
X042494Y031223D01*
X042550Y031150D01*
X042623Y031094D01*
X042709Y031059D01*
X042750Y031054D01*
Y031350D01*
D02*
G37*
G36*
X048220Y025489D02*
X047581D01*
X047590Y025404D01*
X047629Y025274D01*
X047693Y025154D01*
X047779Y025049D01*
X047885Y024962D01*
X048005Y024898D01*
X048135Y024859D01*
X048220Y024850D01*
Y025489D01*
D02*
G37*
G36*
X044219D02*
X043580D01*
Y024850D01*
X043665Y024859D01*
X043795Y024898D01*
X043915Y024962D01*
X044021Y025049D01*
X044107Y025154D01*
X044171Y025274D01*
X044210Y025404D01*
X044219Y025489D01*
D02*
G37*
G36*
X043480D02*
X042841D01*
X042849Y025404D01*
X042889Y025274D01*
X042953Y025154D01*
X043039Y025049D01*
X043144Y024962D01*
X043264Y024898D01*
X043395Y024859D01*
X043480Y024850D01*
Y025489D01*
D02*
G37*
G36*
X039108Y025245D02*
X039005Y025231D01*
X038909Y025191D01*
X038826Y025128D01*
X038763Y025046D01*
X038739Y024988D01*
X038689D01*
X038665Y025046D01*
X038602Y025128D01*
X038520Y025191D01*
X038424Y025231D01*
X038320Y025245D01*
X038217Y025231D01*
X038121Y025191D01*
X038039Y025128D01*
X037975Y025046D01*
X037936Y024950D01*
X037922Y024846D01*
X037936Y024743D01*
X037975Y024647D01*
X038039Y024565D01*
X038121Y024501D01*
X038217Y024462D01*
X038320Y024448D01*
X038424Y024462D01*
X038520Y024501D01*
X038602Y024565D01*
X038665Y024647D01*
X038689Y024704D01*
X038739D01*
X038763Y024647D01*
X038826Y024565D01*
X038909Y024501D01*
X039005Y024462D01*
X039108Y024448D01*
X039211Y024462D01*
X039307Y024501D01*
X039390Y024565D01*
X039453Y024647D01*
X039493Y024743D01*
X039506Y024846D01*
X039493Y024950D01*
X039453Y025046D01*
X039390Y025128D01*
X039307Y025191D01*
X039211Y025231D01*
X039108Y025245D01*
D02*
G37*
G36*
X040930Y025258D02*
Y024896D01*
X041291D01*
X041284Y024955D01*
X041242Y025056D01*
X041175Y025142D01*
X041089Y025209D01*
X040988Y025251D01*
X040930Y025258D01*
D02*
G37*
G36*
X048959Y025489D02*
X048320D01*
Y024850D01*
X048405Y024859D01*
X048536Y024898D01*
X048656Y024962D01*
X048761Y025049D01*
X048847Y025154D01*
X048911Y025274D01*
X048951Y025404D01*
X048959Y025489D01*
D02*
G37*
G36*
X041291Y024796D02*
X040930D01*
Y024434D01*
X040988Y024442D01*
X041089Y024484D01*
X041175Y024551D01*
X041242Y024637D01*
X041284Y024738D01*
X041291Y024796D01*
D02*
G37*
G36*
X039550Y024158D02*
X039445Y024148D01*
X039297Y024103D01*
X039160Y024029D01*
X039039Y023931D01*
X038941Y023811D01*
X038868Y023673D01*
X038822Y023525D01*
X038812Y023420D01*
X039550D01*
Y024158D01*
D02*
G37*
G36*
X040388Y023320D02*
X039650D01*
Y022582D01*
X039755Y022593D01*
X039903Y022638D01*
X040040Y022711D01*
X040161Y022809D01*
X040259Y022930D01*
X040332Y023067D01*
X040378Y023215D01*
X040388Y023320D01*
D02*
G37*
G36*
X039550D02*
X038812D01*
X038822Y023215D01*
X038868Y023067D01*
X038941Y022930D01*
X039039Y022809D01*
X039160Y022711D01*
X039297Y022638D01*
X039445Y022593D01*
X039550Y022582D01*
Y023320D01*
D02*
G37*
G36*
X035250Y025213D02*
X035111Y025200D01*
X034977Y025159D01*
X034854Y025093D01*
X034746Y025004D01*
X034657Y024896D01*
X034591Y024773D01*
X034550Y024639D01*
X034537Y024500D01*
X034550Y024361D01*
X034591Y024227D01*
X034657Y024104D01*
X034746Y023996D01*
X034854Y023907D01*
X034977Y023841D01*
X035111Y023800D01*
X035250Y023787D01*
X035389Y023800D01*
X035523Y023841D01*
X035646Y023907D01*
X035754Y023996D01*
X035843Y024104D01*
X035909Y024227D01*
X035950Y024361D01*
X035963Y024500D01*
X035950Y024639D01*
X035909Y024773D01*
X035843Y024896D01*
X035754Y025004D01*
X035646Y025093D01*
X035523Y025159D01*
X035389Y025200D01*
X035250Y025213D01*
D02*
G37*
G36*
X030750D02*
X030611Y025200D01*
X030477Y025159D01*
X030354Y025093D01*
X030246Y025004D01*
X030157Y024896D01*
X030091Y024773D01*
X030050Y024639D01*
X030037Y024500D01*
X030050Y024361D01*
X030091Y024227D01*
X030157Y024104D01*
X030246Y023996D01*
X030354Y023907D01*
X030477Y023841D01*
X030611Y023800D01*
X030750Y023787D01*
X030889Y023800D01*
X031023Y023841D01*
X031146Y023907D01*
X031254Y023996D01*
X031343Y024104D01*
X031409Y024227D01*
X031450Y024361D01*
X031463Y024500D01*
X031450Y024639D01*
X031409Y024773D01*
X031343Y024896D01*
X031254Y025004D01*
X031146Y025093D01*
X031023Y025159D01*
X030889Y025200D01*
X030750Y025213D01*
D02*
G37*
G36*
X039650Y024158D02*
Y023420D01*
X040388D01*
X040378Y023525D01*
X040332Y023673D01*
X040259Y023811D01*
X040161Y023931D01*
X040040Y024029D01*
X039903Y024103D01*
X039755Y024148D01*
X039650Y024158D01*
D02*
G37*
G36*
X031250Y027359D02*
X031157Y027346D01*
X031071Y027311D01*
X030996Y027254D01*
X030939Y027179D01*
X030904Y027093D01*
X030891Y027000D01*
X030904Y026907D01*
X030939Y026821D01*
X030996Y026746D01*
X031071Y026689D01*
X031157Y026654D01*
X031250Y026641D01*
X031343Y026654D01*
X031429Y026689D01*
X031504Y026746D01*
X031561Y026821D01*
X031596Y026907D01*
X031609Y027000D01*
X031596Y027093D01*
X031561Y027179D01*
X031504Y027254D01*
X031429Y027311D01*
X031343Y027346D01*
X031250Y027359D01*
D02*
G37*
G36*
X034621Y026950D02*
X034298D01*
Y026628D01*
X034346Y026634D01*
X034438Y026672D01*
X034516Y026732D01*
X034576Y026811D01*
X034614Y026902D01*
X034621Y026950D01*
D02*
G37*
G36*
X034198D02*
X033876D01*
X033883Y026902D01*
X033920Y026811D01*
X033981Y026732D01*
X034059Y026672D01*
X034150Y026634D01*
X034198Y026628D01*
Y026950D01*
D02*
G37*
G36*
Y027372D02*
X034150Y027366D01*
X034059Y027328D01*
X033981Y027268D01*
X033920Y027189D01*
X033883Y027098D01*
X033876Y027050D01*
X034198D01*
Y027372D01*
D02*
G37*
G36*
X033250Y027359D02*
X033157Y027346D01*
X033071Y027311D01*
X032996Y027254D01*
X032939Y027179D01*
X032904Y027093D01*
X032891Y027000D01*
X032904Y026907D01*
X032939Y026821D01*
X032996Y026746D01*
X033071Y026689D01*
X033157Y026654D01*
X033250Y026641D01*
X033343Y026654D01*
X033429Y026689D01*
X033504Y026746D01*
X033561Y026821D01*
X033596Y026907D01*
X033609Y027000D01*
X033596Y027093D01*
X033561Y027179D01*
X033504Y027254D01*
X033429Y027311D01*
X033343Y027346D01*
X033250Y027359D01*
D02*
G37*
G36*
X032250D02*
X032157Y027346D01*
X032071Y027311D01*
X031996Y027254D01*
X031939Y027179D01*
X031904Y027093D01*
X031891Y027000D01*
X031904Y026907D01*
X031939Y026821D01*
X031996Y026746D01*
X032071Y026689D01*
X032157Y026654D01*
X032250Y026641D01*
X032343Y026654D01*
X032429Y026689D01*
X032504Y026746D01*
X032561Y026821D01*
X032596Y026907D01*
X032609Y027000D01*
X032596Y027093D01*
X032561Y027179D01*
X032504Y027254D01*
X032429Y027311D01*
X032343Y027346D01*
X032250Y027359D01*
D02*
G37*
G36*
X046824Y026556D02*
X046442D01*
Y026174D01*
X046506Y026183D01*
X046611Y026227D01*
X046702Y026296D01*
X046772Y026387D01*
X046816Y026493D01*
X046824Y026556D01*
D02*
G37*
G36*
X043580Y026228D02*
Y025589D01*
X044219D01*
X044210Y025675D01*
X044171Y025805D01*
X044107Y025925D01*
X044021Y026030D01*
X043915Y026116D01*
X043795Y026180D01*
X043665Y026220D01*
X043580Y026228D01*
D02*
G37*
G36*
X043480D02*
X043395Y026220D01*
X043264Y026180D01*
X043144Y026116D01*
X043039Y026030D01*
X042953Y025925D01*
X042889Y025805D01*
X042849Y025675D01*
X042841Y025589D01*
X043480D01*
Y026228D01*
D02*
G37*
G36*
X038320Y026229D02*
X038217Y026215D01*
X038121Y026176D01*
X038039Y026112D01*
X037975Y026030D01*
X037936Y025934D01*
X037922Y025831D01*
X037936Y025728D01*
X037975Y025632D01*
X038039Y025549D01*
X038121Y025486D01*
X038217Y025446D01*
X038320Y025432D01*
X038424Y025446D01*
X038520Y025486D01*
X038602Y025549D01*
X038665Y025632D01*
X038705Y025728D01*
X038719Y025831D01*
X038705Y025934D01*
X038665Y026030D01*
X038602Y026112D01*
X038520Y026176D01*
X038424Y026215D01*
X038320Y026229D01*
D02*
G37*
G36*
X046342Y026556D02*
X045960D01*
X045969Y026493D01*
X046012Y026387D01*
X046082Y026296D01*
X046173Y026227D01*
X046279Y026183D01*
X046342Y026174D01*
Y026556D01*
D02*
G37*
G36*
X048320Y026228D02*
Y025589D01*
X048959D01*
X048951Y025675D01*
X048911Y025805D01*
X048847Y025925D01*
X048761Y026030D01*
X048656Y026116D01*
X048536Y026180D01*
X048405Y026220D01*
X048320Y026228D01*
D02*
G37*
G36*
X048220D02*
X048135Y026220D01*
X048005Y026180D01*
X047885Y026116D01*
X047779Y026030D01*
X047693Y025925D01*
X047629Y025805D01*
X047590Y025675D01*
X047581Y025589D01*
X048220D01*
Y026228D01*
D02*
G37*
G36*
X030000Y040383D02*
X029901Y040370D01*
X029808Y040332D01*
X029729Y040271D01*
X029668Y040192D01*
X029630Y040099D01*
X029617Y040000D01*
X029630Y039901D01*
X029668Y039808D01*
X029729Y039729D01*
X029808Y039668D01*
X029901Y039630D01*
X030000Y039617D01*
X030099Y039630D01*
X030192Y039668D01*
X030271Y039729D01*
X030332Y039808D01*
X030370Y039901D01*
X030383Y040000D01*
X030370Y040099D01*
X030332Y040192D01*
X030271Y040271D01*
X030192Y040332D01*
X030099Y040370D01*
X030000Y040383D01*
D02*
G37*
G36*
X047171Y040056D02*
X046538D01*
Y039344D01*
X047171D01*
Y039404D01*
X047215Y039426D01*
X047234Y039412D01*
X047314Y039378D01*
X047400Y039367D01*
X047486Y039378D01*
X047566Y039412D01*
X047635Y039465D01*
X047688Y039534D01*
X047722Y039614D01*
X047733Y039700D01*
X047722Y039786D01*
X047688Y039866D01*
X047635Y039935D01*
X047566Y039988D01*
X047486Y040022D01*
X047400Y040033D01*
X047314Y040022D01*
X047234Y039988D01*
X047215Y039974D01*
X047171Y039996D01*
Y040056D01*
D02*
G37*
G36*
X044471D02*
X043838D01*
Y039344D01*
X044471D01*
Y039404D01*
X044515Y039426D01*
X044534Y039412D01*
X044614Y039378D01*
X044700Y039367D01*
X044786Y039378D01*
X044866Y039412D01*
X044935Y039465D01*
X044988Y039534D01*
X045022Y039614D01*
X045033Y039700D01*
X045022Y039786D01*
X044988Y039866D01*
X044935Y039935D01*
X044866Y039988D01*
X044786Y040022D01*
X044700Y040033D01*
X044614Y040022D01*
X044534Y039988D01*
X044515Y039974D01*
X044471Y039996D01*
Y040056D01*
D02*
G37*
G36*
X046462Y041856D02*
X045829D01*
Y041144D01*
X046013D01*
Y040773D01*
X045965Y040735D01*
X045912Y040666D01*
X045878Y040586D01*
X045867Y040500D01*
X045878Y040414D01*
X045912Y040334D01*
X045965Y040265D01*
X046034Y040212D01*
X046114Y040178D01*
X046200Y040167D01*
X046286Y040178D01*
X046366Y040212D01*
X046435Y040265D01*
X046488Y040334D01*
X046522Y040414D01*
X046533Y040500D01*
X046522Y040586D01*
X046488Y040666D01*
X046435Y040735D01*
X046366Y040788D01*
X046286Y040822D01*
X046278Y040823D01*
Y041144D01*
X046462D01*
Y041856D01*
D02*
G37*
G36*
X041300Y040383D02*
X041201Y040370D01*
X041108Y040332D01*
X041029Y040271D01*
X040968Y040192D01*
X040930Y040099D01*
X040917Y040000D01*
X040930Y039901D01*
X040968Y039808D01*
X041029Y039729D01*
X041108Y039668D01*
X041201Y039630D01*
X041300Y039617D01*
X041399Y039630D01*
X041492Y039668D01*
X041571Y039729D01*
X041632Y039808D01*
X041670Y039901D01*
X041683Y040000D01*
X041670Y040099D01*
X041632Y040192D01*
X041571Y040271D01*
X041492Y040332D01*
X041399Y040370D01*
X041300Y040383D01*
D02*
G37*
G36*
X036200D02*
X036101Y040370D01*
X036008Y040332D01*
X035929Y040271D01*
X035868Y040192D01*
X035830Y040099D01*
X035817Y040000D01*
X035830Y039901D01*
X035868Y039808D01*
X035929Y039729D01*
X036008Y039668D01*
X036101Y039630D01*
X036200Y039617D01*
X036299Y039630D01*
X036392Y039668D01*
X036471Y039729D01*
X036532Y039808D01*
X036570Y039901D01*
X036583Y040000D01*
X036570Y040099D01*
X036532Y040192D01*
X036471Y040271D01*
X036392Y040332D01*
X036299Y040370D01*
X036200Y040383D01*
D02*
G37*
G36*
X041300Y039383D02*
X041201Y039370D01*
X041108Y039332D01*
X041029Y039271D01*
X040968Y039192D01*
X040930Y039099D01*
X040917Y039000D01*
X040930Y038901D01*
X040968Y038808D01*
X041029Y038729D01*
X041108Y038668D01*
X041201Y038630D01*
X041300Y038617D01*
X041399Y038630D01*
X041492Y038668D01*
X041571Y038729D01*
X041632Y038808D01*
X041670Y038901D01*
X041683Y039000D01*
X041670Y039099D01*
X041632Y039192D01*
X041571Y039271D01*
X041492Y039332D01*
X041399Y039370D01*
X041300Y039383D01*
D02*
G37*
G36*
X036200Y038383D02*
X036101Y038370D01*
X036008Y038332D01*
X035929Y038271D01*
X035868Y038192D01*
X035830Y038099D01*
X035817Y038000D01*
X035830Y037901D01*
X035868Y037808D01*
X035929Y037729D01*
X036008Y037668D01*
X036101Y037630D01*
X036200Y037617D01*
X036299Y037630D01*
X036392Y037668D01*
X036471Y037729D01*
X036532Y037808D01*
X036570Y037901D01*
X036583Y038000D01*
X036570Y038099D01*
X036532Y038192D01*
X036471Y038271D01*
X036392Y038332D01*
X036299Y038370D01*
X036200Y038383D01*
D02*
G37*
G36*
X030000D02*
X029901Y038370D01*
X029808Y038332D01*
X029729Y038271D01*
X029668Y038192D01*
X029630Y038099D01*
X029617Y038000D01*
X029630Y037901D01*
X029668Y037808D01*
X029729Y037729D01*
X029808Y037668D01*
X029901Y037630D01*
X030000Y037617D01*
X030099Y037630D01*
X030192Y037668D01*
X030271Y037729D01*
X030332Y037808D01*
X030370Y037901D01*
X030383Y038000D01*
X030370Y038099D01*
X030332Y038192D01*
X030271Y038271D01*
X030192Y038332D01*
X030099Y038370D01*
X030000Y038383D01*
D02*
G37*
G36*
X047171Y038256D02*
X046538D01*
Y037544D01*
X047171D01*
Y037604D01*
X047215Y037626D01*
X047234Y037612D01*
X047314Y037578D01*
X047400Y037567D01*
X047486Y037578D01*
X047566Y037612D01*
X047635Y037665D01*
X047688Y037734D01*
X047722Y037814D01*
X047733Y037900D01*
X047722Y037986D01*
X047688Y038066D01*
X047635Y038135D01*
X047566Y038188D01*
X047486Y038222D01*
X047400Y038233D01*
X047314Y038222D01*
X047234Y038188D01*
X047215Y038174D01*
X047171Y038196D01*
Y038256D01*
D02*
G37*
G36*
X036200Y039383D02*
X036101Y039370D01*
X036008Y039332D01*
X035929Y039271D01*
X035868Y039192D01*
X035830Y039099D01*
X035817Y039000D01*
X035830Y038901D01*
X035868Y038808D01*
X035929Y038729D01*
X036008Y038668D01*
X036101Y038630D01*
X036200Y038617D01*
X036299Y038630D01*
X036392Y038668D01*
X036471Y038729D01*
X036532Y038808D01*
X036570Y038901D01*
X036583Y039000D01*
X036570Y039099D01*
X036532Y039192D01*
X036471Y039271D01*
X036392Y039332D01*
X036299Y039370D01*
X036200Y039383D01*
D02*
G37*
G36*
X030000D02*
X029901Y039370D01*
X029808Y039332D01*
X029729Y039271D01*
X029668Y039192D01*
X029630Y039099D01*
X029617Y039000D01*
X029630Y038901D01*
X029668Y038808D01*
X029729Y038729D01*
X029808Y038668D01*
X029901Y038630D01*
X030000Y038617D01*
X030099Y038630D01*
X030192Y038668D01*
X030271Y038729D01*
X030332Y038808D01*
X030370Y038901D01*
X030383Y039000D01*
X030370Y039099D01*
X030332Y039192D01*
X030271Y039271D01*
X030192Y039332D01*
X030099Y039370D01*
X030000Y039383D01*
D02*
G37*
G36*
X046462Y040056D02*
X045829D01*
Y039344D01*
X046067D01*
Y039102D01*
X046034Y039088D01*
X045965Y039035D01*
X045912Y038966D01*
X045878Y038886D01*
X045867Y038800D01*
X045878Y038714D01*
X045912Y038634D01*
X045965Y038565D01*
X046034Y038512D01*
X046114Y038478D01*
X046200Y038467D01*
X046286Y038478D01*
X046366Y038512D01*
X046435Y038565D01*
X046488Y038634D01*
X046522Y038714D01*
X046533Y038800D01*
X046522Y038886D01*
X046488Y038966D01*
X046435Y039035D01*
X046366Y039088D01*
X046333Y039102D01*
Y039344D01*
X046462D01*
Y040056D01*
D02*
G37*
G36*
X030000Y041383D02*
X029901Y041370D01*
X029808Y041332D01*
X029729Y041271D01*
X029668Y041192D01*
X029630Y041099D01*
X029617Y041000D01*
X029630Y040901D01*
X029668Y040808D01*
X029729Y040729D01*
X029808Y040668D01*
X029901Y040630D01*
X030000Y040617D01*
X030099Y040630D01*
X030192Y040668D01*
X030271Y040729D01*
X030332Y040808D01*
X030370Y040901D01*
X030383Y041000D01*
X030370Y041099D01*
X030332Y041192D01*
X030271Y041271D01*
X030192Y041332D01*
X030099Y041370D01*
X030000Y041383D01*
D02*
G37*
G36*
X041300Y042383D02*
X041201Y042370D01*
X041108Y042332D01*
X041029Y042271D01*
X040968Y042192D01*
X040930Y042099D01*
X040917Y042000D01*
X040930Y041901D01*
X040968Y041808D01*
X041029Y041729D01*
X041108Y041668D01*
X041201Y041630D01*
X041300Y041617D01*
X041399Y041630D01*
X041492Y041668D01*
X041571Y041729D01*
X041632Y041808D01*
X041670Y041901D01*
X041683Y042000D01*
X041670Y042099D01*
X041632Y042192D01*
X041571Y042271D01*
X041492Y042332D01*
X041399Y042370D01*
X041300Y042383D01*
D02*
G37*
G36*
X035100D02*
X035001Y042370D01*
X034908Y042332D01*
X034829Y042271D01*
X034768Y042192D01*
X034730Y042099D01*
X034717Y042000D01*
X034730Y041901D01*
X034768Y041808D01*
X034829Y041729D01*
X034908Y041668D01*
X035001Y041630D01*
X035100Y041617D01*
X035199Y041630D01*
X035292Y041668D01*
X035371Y041729D01*
X035432Y041808D01*
X035470Y041901D01*
X035483Y042000D01*
X035470Y042099D01*
X035432Y042192D01*
X035371Y042271D01*
X035292Y042332D01*
X035199Y042370D01*
X035100Y042383D01*
D02*
G37*
G36*
X032000D02*
X031901Y042370D01*
X031808Y042332D01*
X031729Y042271D01*
X031668Y042192D01*
X031630Y042099D01*
X031617Y042000D01*
X031630Y041901D01*
X031668Y041808D01*
X031729Y041729D01*
X031808Y041668D01*
X031901Y041630D01*
X032000Y041617D01*
X032099Y041630D01*
X032192Y041668D01*
X032271Y041729D01*
X032332Y041808D01*
X032370Y041901D01*
X032383Y042000D01*
X032370Y042099D01*
X032332Y042192D01*
X032271Y042271D01*
X032192Y042332D01*
X032099Y042370D01*
X032000Y042383D01*
D02*
G37*
G36*
X036580Y042380D02*
X035820D01*
Y041620D01*
X036580D01*
Y042380D01*
D02*
G37*
G36*
X033480D02*
X032720D01*
Y041620D01*
X033480D01*
Y042380D01*
D02*
G37*
G36*
X030380D02*
X029620D01*
Y041620D01*
X030380D01*
Y042380D01*
D02*
G37*
G36*
X047171Y041856D02*
X046538D01*
Y041144D01*
X047171D01*
Y041204D01*
X047215Y041226D01*
X047234Y041212D01*
X047314Y041178D01*
X047400Y041167D01*
X047486Y041178D01*
X047566Y041212D01*
X047635Y041265D01*
X047688Y041334D01*
X047722Y041414D01*
X047733Y041500D01*
X047722Y041586D01*
X047688Y041666D01*
X047635Y041735D01*
X047566Y041788D01*
X047486Y041822D01*
X047400Y041833D01*
X047314Y041822D01*
X047234Y041788D01*
X047215Y041774D01*
X047171Y041796D01*
Y041856D01*
D02*
G37*
G36*
X036200Y041383D02*
X036101Y041370D01*
X036008Y041332D01*
X035929Y041271D01*
X035868Y041192D01*
X035830Y041099D01*
X035817Y041000D01*
X035830Y040901D01*
X035868Y040808D01*
X035929Y040729D01*
X036008Y040668D01*
X036101Y040630D01*
X036200Y040617D01*
X036299Y040630D01*
X036392Y040668D01*
X036471Y040729D01*
X036532Y040808D01*
X036570Y040901D01*
X036583Y041000D01*
X036570Y041099D01*
X036532Y041192D01*
X036471Y041271D01*
X036392Y041332D01*
X036299Y041370D01*
X036200Y041383D01*
D02*
G37*
G36*
X035100D02*
X035001Y041370D01*
X034908Y041332D01*
X034829Y041271D01*
X034768Y041192D01*
X034730Y041099D01*
X034717Y041000D01*
X034730Y040901D01*
X034768Y040808D01*
X034808Y040756D01*
X034576Y040524D01*
X034548Y040481D01*
X034537Y040430D01*
Y038822D01*
X034548Y038771D01*
X034576Y038728D01*
X034922Y038383D01*
X034912Y038333D01*
X034908Y038332D01*
X034829Y038271D01*
X034768Y038192D01*
X034730Y038099D01*
X034717Y038000D01*
X034730Y037901D01*
X034768Y037808D01*
X034829Y037729D01*
X034908Y037668D01*
X034967Y037644D01*
Y037549D01*
X034902D01*
Y036937D01*
X035298D01*
Y037549D01*
X035233D01*
Y037644D01*
X035292Y037668D01*
X035371Y037729D01*
X035432Y037808D01*
X035470Y037901D01*
X035483Y038000D01*
X035470Y038099D01*
X035432Y038192D01*
X035371Y038271D01*
X035292Y038332D01*
X035233Y038356D01*
Y038392D01*
X035222Y038443D01*
X035194Y038486D01*
X035107Y038572D01*
X035123Y038620D01*
X035199Y038630D01*
X035292Y038668D01*
X035371Y038729D01*
X035432Y038808D01*
X035470Y038901D01*
X035483Y039000D01*
X035470Y039099D01*
X035432Y039192D01*
X035371Y039271D01*
X035292Y039332D01*
X035199Y039370D01*
X035100Y039383D01*
X035001Y039370D01*
X034908Y039332D01*
X034847Y039285D01*
X034803Y039307D01*
Y039693D01*
X034847Y039715D01*
X034908Y039668D01*
X035001Y039630D01*
X035100Y039617D01*
X035199Y039630D01*
X035292Y039668D01*
X035371Y039729D01*
X035432Y039808D01*
X035470Y039901D01*
X035483Y040000D01*
X035470Y040099D01*
X035432Y040192D01*
X035371Y040271D01*
X035292Y040332D01*
X035199Y040370D01*
X035100Y040383D01*
X035001Y040370D01*
X034908Y040332D01*
X034847Y040285D01*
X034803Y040307D01*
Y040375D01*
X035051Y040623D01*
X035100Y040617D01*
X035199Y040630D01*
X035292Y040668D01*
X035371Y040729D01*
X035432Y040808D01*
X035470Y040901D01*
X035483Y041000D01*
X035470Y041099D01*
X035432Y041192D01*
X035371Y041271D01*
X035292Y041332D01*
X035199Y041370D01*
X035100Y041383D01*
D02*
G37*
G36*
X033100D02*
X033001Y041370D01*
X032908Y041332D01*
X032829Y041271D01*
X032768Y041192D01*
X032730Y041099D01*
X032717Y041000D01*
X032730Y040901D01*
X032768Y040808D01*
X032829Y040729D01*
X032908Y040668D01*
X033001Y040630D01*
X033100Y040617D01*
X033199Y040630D01*
X033258Y040654D01*
X033947Y039965D01*
Y038405D01*
X033901Y038386D01*
X033446Y038842D01*
X033470Y038901D01*
X033483Y039000D01*
X033470Y039099D01*
X033432Y039192D01*
X033371Y039271D01*
X033292Y039332D01*
X033199Y039370D01*
X033100Y039383D01*
X033001Y039370D01*
X032908Y039332D01*
X032829Y039271D01*
X032790Y039220D01*
X032743Y039236D01*
Y039455D01*
X032942Y039654D01*
X033001Y039630D01*
X033100Y039617D01*
X033199Y039630D01*
X033292Y039668D01*
X033371Y039729D01*
X033432Y039808D01*
X033470Y039901D01*
X033483Y040000D01*
X033470Y040099D01*
X033432Y040192D01*
X033371Y040271D01*
X033292Y040332D01*
X033199Y040370D01*
X033100Y040383D01*
X033001Y040370D01*
X032908Y040332D01*
X032829Y040271D01*
X032768Y040192D01*
X032730Y040099D01*
X032717Y040000D01*
X032730Y039901D01*
X032754Y039842D01*
X032516Y039604D01*
X032488Y039561D01*
X032477Y039510D01*
Y038775D01*
X032431Y038756D01*
X032346Y038842D01*
X032370Y038901D01*
X032383Y039000D01*
X032370Y039099D01*
X032332Y039192D01*
X032271Y039271D01*
X032192Y039332D01*
X032099Y039370D01*
X032000Y039383D01*
X031901Y039370D01*
X031808Y039332D01*
X031729Y039271D01*
X031680Y039207D01*
X031633Y039223D01*
Y039777D01*
X031680Y039793D01*
X031729Y039729D01*
X031808Y039668D01*
X031901Y039630D01*
X032000Y039617D01*
X032099Y039630D01*
X032192Y039668D01*
X032271Y039729D01*
X032332Y039808D01*
X032370Y039901D01*
X032383Y040000D01*
X032370Y040099D01*
X032332Y040192D01*
X032271Y040271D01*
X032192Y040332D01*
X032099Y040370D01*
X032000Y040383D01*
X031901Y040370D01*
X031808Y040332D01*
X031729Y040271D01*
X031680Y040207D01*
X031633Y040223D01*
Y040445D01*
X031842Y040654D01*
X031901Y040630D01*
X032000Y040617D01*
X032099Y040630D01*
X032192Y040668D01*
X032271Y040729D01*
X032332Y040808D01*
X032370Y040901D01*
X032383Y041000D01*
X032370Y041099D01*
X032332Y041192D01*
X032271Y041271D01*
X032192Y041332D01*
X032099Y041370D01*
X032000Y041383D01*
X031901Y041370D01*
X031808Y041332D01*
X031729Y041271D01*
X031668Y041192D01*
X031630Y041099D01*
X031617Y041000D01*
X031630Y040901D01*
X031654Y040842D01*
X031406Y040594D01*
X031378Y040551D01*
X031367Y040500D01*
Y038500D01*
X031378Y038449D01*
X031406Y038406D01*
X031654Y038158D01*
X031630Y038099D01*
X031617Y038000D01*
X031630Y037901D01*
X031654Y037842D01*
X031488Y037675D01*
X031198D01*
Y037849D01*
X030802D01*
Y037237D01*
X031198D01*
Y037410D01*
X031543D01*
X031594Y037420D01*
X031637Y037449D01*
X031842Y037654D01*
X031901Y037630D01*
X031971Y037620D01*
X031983Y037609D01*
X031999Y037574D01*
X031978Y037543D01*
X031967Y037492D01*
Y036602D01*
X031934Y036588D01*
X031865Y036535D01*
X031812Y036466D01*
X031778Y036386D01*
X031767Y036300D01*
X031778Y036214D01*
X031812Y036134D01*
X031865Y036065D01*
X031934Y036012D01*
X032014Y035978D01*
X032100Y035967D01*
X032186Y035978D01*
X032266Y036012D01*
X032335Y036065D01*
X032388Y036134D01*
X032422Y036214D01*
X032433Y036300D01*
X032422Y036386D01*
X032388Y036466D01*
X032335Y036535D01*
X032266Y036588D01*
X032233Y036602D01*
Y036833D01*
X032277Y036855D01*
X032334Y036812D01*
X032414Y036778D01*
X032500Y036767D01*
X032586Y036778D01*
X032666Y036812D01*
X032735Y036865D01*
X032788Y036934D01*
X032822Y037014D01*
X032833Y037100D01*
X032822Y037186D01*
X032788Y037266D01*
X032735Y037335D01*
X032666Y037388D01*
X032633Y037402D01*
Y037582D01*
X032704Y037654D01*
X032732Y037697D01*
X032743Y037747D01*
Y037764D01*
X032790Y037780D01*
X032829Y037729D01*
X032908Y037668D01*
X033001Y037630D01*
X033100Y037617D01*
X033199Y037630D01*
X033292Y037668D01*
X033371Y037729D01*
X033432Y037808D01*
X033470Y037901D01*
X033483Y038000D01*
X033470Y038099D01*
X033432Y038192D01*
X033371Y038271D01*
X033292Y038332D01*
X033199Y038370D01*
X033100Y038383D01*
X033001Y038370D01*
X032908Y038332D01*
X032829Y038271D01*
X032790Y038220D01*
X032743Y038236D01*
Y038764D01*
X032790Y038780D01*
X032829Y038729D01*
X032908Y038668D01*
X033001Y038630D01*
X033100Y038617D01*
X033199Y038630D01*
X033258Y038654D01*
X033767Y038145D01*
Y037255D01*
X033520Y037007D01*
X033486Y037022D01*
X033400Y037033D01*
X033314Y037022D01*
X033234Y036988D01*
X033165Y036935D01*
X033112Y036866D01*
X033078Y036786D01*
X033067Y036700D01*
X033078Y036614D01*
X033112Y036534D01*
X033165Y036465D01*
X033234Y036412D01*
X033314Y036378D01*
X033359Y036373D01*
X033375Y036325D01*
X033306Y036256D01*
X033290Y036233D01*
X033202D01*
X033188Y036266D01*
X033135Y036335D01*
X033066Y036388D01*
X032986Y036422D01*
X032900Y036433D01*
X032814Y036422D01*
X032734Y036388D01*
X032665Y036335D01*
X032612Y036266D01*
X032578Y036186D01*
X032567Y036100D01*
X032578Y036014D01*
X032612Y035934D01*
X032665Y035865D01*
X032734Y035812D01*
X032814Y035778D01*
X032900Y035767D01*
X032986Y035778D01*
X033066Y035812D01*
X033135Y035865D01*
X033188Y035934D01*
X033202Y035967D01*
X033400D01*
X033451Y035978D01*
X033494Y036006D01*
X033522Y036049D01*
X033533Y036100D01*
Y036108D01*
X034174Y036749D01*
X034202Y036792D01*
X034213Y036843D01*
Y040020D01*
X034202Y040071D01*
X034174Y040114D01*
X033446Y040842D01*
X033470Y040901D01*
X033483Y041000D01*
X033470Y041099D01*
X033432Y041192D01*
X033371Y041271D01*
X033292Y041332D01*
X033199Y041370D01*
X033100Y041383D01*
D02*
G37*
G36*
X044471Y041856D02*
X043838D01*
Y041144D01*
X044471D01*
Y041204D01*
X044515Y041226D01*
X044534Y041212D01*
X044614Y041178D01*
X044700Y041167D01*
X044786Y041178D01*
X044866Y041212D01*
X044935Y041265D01*
X044988Y041334D01*
X045022Y041414D01*
X045033Y041500D01*
X045022Y041586D01*
X044988Y041666D01*
X044935Y041735D01*
X044866Y041788D01*
X044786Y041822D01*
X044700Y041833D01*
X044614Y041822D01*
X044534Y041788D01*
X044515Y041774D01*
X044471Y041796D01*
Y041856D01*
D02*
G37*
G36*
X041300Y041383D02*
X041201Y041370D01*
X041108Y041332D01*
X041029Y041271D01*
X040968Y041192D01*
X040930Y041099D01*
X040917Y041000D01*
X040930Y040901D01*
X040968Y040808D01*
X041029Y040729D01*
X041108Y040668D01*
X041201Y040630D01*
X041300Y040617D01*
X041399Y040630D01*
X041492Y040668D01*
X041571Y040729D01*
X041632Y040808D01*
X041670Y040901D01*
X041683Y041000D01*
X041670Y041099D01*
X041632Y041192D01*
X041571Y041271D01*
X041492Y041332D01*
X041399Y041370D01*
X041300Y041383D01*
D02*
G37*
G36*
X038200Y042383D02*
X038101Y042370D01*
X038008Y042332D01*
X037929Y042271D01*
X037868Y042192D01*
X037830Y042099D01*
X037817Y042000D01*
X037830Y041901D01*
X037868Y041808D01*
X037929Y041729D01*
X038008Y041668D01*
X038101Y041630D01*
X038200Y041617D01*
X038299Y041630D01*
X038358Y041654D01*
X038676Y041336D01*
X038719Y041308D01*
X038770Y041297D01*
X038993D01*
X039015Y041253D01*
X038968Y041192D01*
X038930Y041099D01*
X038917Y041000D01*
X038930Y040901D01*
X038968Y040808D01*
X039029Y040729D01*
X039108Y040668D01*
X039201Y040630D01*
X039300Y040617D01*
X039399Y040630D01*
X039492Y040668D01*
X039553Y040715D01*
X039597Y040693D01*
Y040307D01*
X039553Y040285D01*
X039492Y040332D01*
X039399Y040370D01*
X039300Y040383D01*
X039201Y040370D01*
X039108Y040332D01*
X039029Y040271D01*
X038968Y040192D01*
X038930Y040099D01*
X038917Y040000D01*
X038926Y039928D01*
X038881Y039906D01*
X038794Y039994D01*
X038751Y040022D01*
X038700Y040033D01*
X038579D01*
X038570Y040099D01*
X038532Y040192D01*
X038471Y040271D01*
X038392Y040332D01*
X038299Y040370D01*
X038200Y040383D01*
X038101Y040370D01*
X038008Y040332D01*
X037947Y040285D01*
X037903Y040307D01*
Y040375D01*
X038151Y040623D01*
X038200Y040617D01*
X038299Y040630D01*
X038392Y040668D01*
X038471Y040729D01*
X038532Y040808D01*
X038570Y040901D01*
X038583Y041000D01*
X038570Y041099D01*
X038532Y041192D01*
X038471Y041271D01*
X038392Y041332D01*
X038299Y041370D01*
X038200Y041383D01*
X038101Y041370D01*
X038008Y041332D01*
X037929Y041271D01*
X037868Y041192D01*
X037830Y041099D01*
X037817Y041000D01*
X037830Y040901D01*
X037868Y040808D01*
X037908Y040756D01*
X037676Y040524D01*
X037648Y040481D01*
X037637Y040430D01*
Y038822D01*
X037648Y038771D01*
X037676Y038728D01*
X038022Y038383D01*
X038012Y038333D01*
X038008Y038332D01*
X037929Y038271D01*
X037868Y038192D01*
X037830Y038099D01*
X037817Y038000D01*
X037830Y037901D01*
X037854Y037842D01*
X037688Y037675D01*
X037398D01*
Y037849D01*
X037002D01*
Y037237D01*
X037398D01*
Y037410D01*
X037743D01*
X037794Y037420D01*
X037837Y037449D01*
X038042Y037654D01*
X038101Y037630D01*
X038200Y037617D01*
X038299Y037630D01*
X038392Y037668D01*
X038471Y037729D01*
X038532Y037808D01*
X038570Y037901D01*
X038583Y038000D01*
X038570Y038099D01*
X038532Y038192D01*
X038471Y038271D01*
X038392Y038332D01*
X038333Y038356D01*
Y038392D01*
X038322Y038443D01*
X038294Y038486D01*
X038207Y038572D01*
X038223Y038620D01*
X038299Y038630D01*
X038392Y038668D01*
X038471Y038729D01*
X038532Y038808D01*
X038570Y038901D01*
X038583Y039000D01*
X038570Y039099D01*
X038532Y039192D01*
X038471Y039271D01*
X038392Y039332D01*
X038299Y039370D01*
X038200Y039383D01*
X038101Y039370D01*
X038008Y039332D01*
X037947Y039285D01*
X037903Y039307D01*
Y039693D01*
X037947Y039715D01*
X038008Y039668D01*
X038101Y039630D01*
X038200Y039617D01*
X038299Y039630D01*
X038392Y039668D01*
X038471Y039729D01*
X038501Y039767D01*
X038645D01*
X038667Y039745D01*
Y037402D01*
X038634Y037388D01*
X038565Y037335D01*
X038512Y037266D01*
X038478Y037186D01*
X038467Y037100D01*
X038478Y037014D01*
X038512Y036934D01*
X038565Y036865D01*
X038634Y036812D01*
X038714Y036778D01*
X038800Y036767D01*
X038886Y036778D01*
X038966Y036812D01*
X039035Y036865D01*
X039088Y036934D01*
X039122Y037014D01*
X039133Y037100D01*
X039122Y037186D01*
X039088Y037266D01*
X039035Y037335D01*
X038966Y037388D01*
X038933Y037402D01*
Y037777D01*
X038980Y037793D01*
X039029Y037729D01*
X039108Y037668D01*
X039201Y037630D01*
X039300Y037617D01*
X039399Y037630D01*
X039426Y037641D01*
X039467Y037613D01*
Y037402D01*
X039434Y037388D01*
X039365Y037335D01*
X039312Y037266D01*
X039278Y037186D01*
X039267Y037100D01*
X039278Y037014D01*
X039312Y036934D01*
X039365Y036865D01*
X039434Y036812D01*
X039514Y036778D01*
X039600Y036767D01*
X039686Y036778D01*
X039766Y036812D01*
X039835Y036865D01*
X039888Y036934D01*
X039922Y037014D01*
X039933Y037100D01*
X039922Y037186D01*
X039888Y037266D01*
X039835Y037335D01*
X039766Y037388D01*
X039733Y037402D01*
Y037637D01*
X039824Y037728D01*
X039852Y037771D01*
X039863Y037822D01*
Y041178D01*
X039852Y041229D01*
X039824Y041272D01*
X039572Y041524D01*
X039529Y041552D01*
X039478Y041563D01*
X038825D01*
X038546Y041842D01*
X038570Y041901D01*
X038583Y042000D01*
X038570Y042099D01*
X038532Y042192D01*
X038471Y042271D01*
X038392Y042332D01*
X038299Y042370D01*
X038200Y042383D01*
D02*
G37*
G36*
X030576Y036607D02*
X030408D01*
Y036331D01*
X030576D01*
Y036607D01*
D02*
G37*
G36*
X041872Y036663D02*
X041476D01*
Y036063D01*
X041445Y036033D01*
X041144D01*
Y036307D01*
X040708D01*
Y036033D01*
X037600D01*
X037549Y036022D01*
X037506Y035994D01*
X036106Y034594D01*
X036078Y034551D01*
X036067Y034500D01*
Y030255D01*
X035245Y029433D01*
X033502D01*
X033488Y029466D01*
X033435Y029535D01*
X033366Y029588D01*
X033286Y029622D01*
X033200Y029633D01*
X033114Y029622D01*
X033034Y029588D01*
X032965Y029535D01*
X032912Y029466D01*
X032878Y029386D01*
X032867Y029300D01*
X032878Y029214D01*
X032912Y029134D01*
X032965Y029065D01*
X033034Y029012D01*
X033114Y028978D01*
X033200Y028967D01*
X033286Y028978D01*
X033366Y029012D01*
X033435Y029065D01*
X033488Y029134D01*
X033502Y029167D01*
X035300D01*
X035351Y029178D01*
X035394Y029206D01*
X036294Y030106D01*
X036322Y030149D01*
X036333Y030200D01*
Y031208D01*
X036377Y031230D01*
X036423Y031194D01*
X036509Y031159D01*
X036550Y031154D01*
Y031500D01*
Y031846D01*
X036509Y031841D01*
X036423Y031806D01*
X036377Y031770D01*
X036333Y031792D01*
Y034445D01*
X037655Y035767D01*
X041500D01*
X041551Y035778D01*
X041594Y035806D01*
X041794Y036006D01*
X041822Y036049D01*
X041823Y036051D01*
X041872D01*
Y036663D01*
D02*
G37*
G36*
X034944Y036307D02*
X034776D01*
Y036031D01*
X034944D01*
Y036307D01*
D02*
G37*
G36*
X044650Y032346D02*
Y032050D01*
X044946D01*
X044941Y032091D01*
X044906Y032177D01*
X044850Y032250D01*
X044777Y032306D01*
X044691Y032341D01*
X044650Y032346D01*
D02*
G37*
G36*
X036776Y036607D02*
X036608D01*
Y036331D01*
X036776D01*
Y036607D01*
D02*
G37*
G36*
X030844D02*
X030676D01*
Y036331D01*
X030844D01*
Y036607D01*
D02*
G37*
G36*
X048100Y034379D02*
X048002Y034366D01*
X047911Y034328D01*
X047832Y034268D01*
X047772Y034189D01*
X047734Y034098D01*
X047721Y034000D01*
X047734Y033902D01*
X047772Y033811D01*
X047832Y033732D01*
X047911Y033672D01*
X048002Y033634D01*
X048100Y033621D01*
X048198Y033634D01*
X048289Y033672D01*
X048368Y033732D01*
X048428Y033811D01*
X048466Y033902D01*
X048479Y034000D01*
X048466Y034098D01*
X048428Y034189D01*
X048368Y034268D01*
X048289Y034328D01*
X048198Y034366D01*
X048100Y034379D01*
D02*
G37*
G36*
Y033379D02*
X048002Y033366D01*
X047911Y033328D01*
X047832Y033268D01*
X047772Y033189D01*
X047734Y033098D01*
X047721Y033000D01*
X047734Y032902D01*
X047772Y032811D01*
X047832Y032732D01*
X047911Y032672D01*
X048002Y032634D01*
X048100Y032621D01*
X048198Y032634D01*
X048289Y032672D01*
X048368Y032732D01*
X048428Y032811D01*
X048466Y032902D01*
X048479Y033000D01*
X048466Y033098D01*
X048428Y033189D01*
X048368Y033268D01*
X048289Y033328D01*
X048198Y033366D01*
X048100Y033379D01*
D02*
G37*
G36*
X044000Y033056D02*
X043917Y033045D01*
X043841Y033013D01*
X043774Y032963D01*
X043724Y032896D01*
X043692Y032820D01*
X043681Y032737D01*
X043692Y032654D01*
X043724Y032578D01*
X043774Y032511D01*
X043841Y032461D01*
X043917Y032429D01*
X044000Y032418D01*
X044083Y032429D01*
X044159Y032461D01*
X044226Y032511D01*
X044276Y032578D01*
X044308Y032654D01*
X044319Y032737D01*
X044308Y032820D01*
X044276Y032896D01*
X044226Y032963D01*
X044159Y033013D01*
X044083Y033045D01*
X044000Y033056D01*
D02*
G37*
G36*
X034676Y036307D02*
X034508D01*
Y036031D01*
X034676D01*
Y036307D01*
D02*
G37*
G36*
X031572Y036963D02*
X031176D01*
Y036351D01*
X031256D01*
X031266Y036302D01*
X031234Y036288D01*
X031165Y036235D01*
X031112Y036166D01*
X031078Y036086D01*
X031067Y036000D01*
X031078Y035914D01*
X031112Y035834D01*
X031165Y035765D01*
X031234Y035712D01*
X031314Y035678D01*
X031400Y035667D01*
X031486Y035678D01*
X031566Y035712D01*
X031635Y035765D01*
X031688Y035834D01*
X031722Y035914D01*
X031733Y036000D01*
X031722Y036086D01*
X031688Y036166D01*
X031635Y036235D01*
X031566Y036288D01*
X031534Y036302D01*
X031544Y036351D01*
X031572D01*
Y036963D01*
D02*
G37*
G36*
X040400Y033333D02*
X040314Y033322D01*
X040234Y033288D01*
X040165Y033235D01*
X040112Y033166D01*
X040078Y033086D01*
X040067Y033000D01*
X040078Y032914D01*
X040112Y032834D01*
X040165Y032765D01*
X040234Y032712D01*
X040267Y032698D01*
Y032455D01*
X040176Y032363D01*
X040131Y032385D01*
X040133Y032400D01*
X040122Y032486D01*
X040088Y032566D01*
X040035Y032635D01*
X039966Y032688D01*
X039886Y032722D01*
X039800Y032733D01*
X039714Y032722D01*
X039634Y032688D01*
X039565Y032635D01*
X039512Y032566D01*
X039478Y032486D01*
X039467Y032400D01*
X039478Y032314D01*
X039493Y032280D01*
X039005Y031793D01*
X038068D01*
X038017Y031782D01*
X037974Y031754D01*
X037646Y031426D01*
X037618Y031383D01*
X037607Y031332D01*
Y030668D01*
X037618Y030617D01*
X037646Y030574D01*
X039960Y028261D01*
Y025219D01*
X039893Y025191D01*
X039810Y025128D01*
X039747Y025046D01*
X039707Y024950D01*
X039694Y024846D01*
X039707Y024743D01*
X039747Y024647D01*
X039810Y024565D01*
X039893Y024501D01*
X039989Y024462D01*
X040092Y024448D01*
X040195Y024462D01*
X040291Y024501D01*
X040374Y024565D01*
X040437Y024647D01*
X040450Y024678D01*
X040500D01*
X040517Y024637D01*
X040584Y024551D01*
X040670Y024484D01*
X040771Y024442D01*
X040830Y024434D01*
Y024846D01*
Y025258D01*
X040771Y025251D01*
X040670Y025209D01*
X040584Y025142D01*
X040517Y025056D01*
X040500Y025015D01*
X040450D01*
X040437Y025046D01*
X040374Y025128D01*
X040291Y025191D01*
X040225Y025219D01*
Y028185D01*
X040271Y028204D01*
X040747Y027728D01*
Y026203D01*
X040680Y026176D01*
X040598Y026112D01*
X040535Y026030D01*
X040495Y025934D01*
X040481Y025831D01*
X040495Y025728D01*
X040535Y025632D01*
X040598Y025549D01*
X040680Y025486D01*
X040776Y025446D01*
X040880Y025432D01*
X040983Y025446D01*
X041079Y025486D01*
X041161Y025549D01*
X041225Y025632D01*
X041264Y025728D01*
X041278Y025831D01*
X041264Y025934D01*
X041225Y026030D01*
X041161Y026112D01*
X041079Y026176D01*
X041012Y026203D01*
Y027783D01*
X041002Y027834D01*
X040973Y027877D01*
X038825Y030025D01*
X038841Y030073D01*
X038886Y030078D01*
X038920Y030093D01*
X042500Y026513D01*
X042543Y026484D01*
X042594Y026474D01*
X045014D01*
X045046Y026397D01*
X045112Y026311D01*
X045199Y026244D01*
X045300Y026202D01*
X045408Y026188D01*
X045516Y026202D01*
X045617Y026244D01*
X045704Y026311D01*
X045770Y026397D01*
X045812Y026498D01*
X045826Y026606D01*
X045812Y026715D01*
X045770Y026815D01*
X045704Y026902D01*
X045617Y026968D01*
X045601Y026975D01*
Y027025D01*
X045617Y027032D01*
X045704Y027098D01*
X045770Y027185D01*
X045812Y027285D01*
X045826Y027394D01*
X045812Y027502D01*
X045770Y027603D01*
X045704Y027689D01*
X045617Y027756D01*
X045516Y027798D01*
X045408Y027812D01*
X045300Y027798D01*
X045199Y027756D01*
X045112Y027689D01*
X045046Y027603D01*
X045014Y027526D01*
X042699D01*
X039031Y031194D01*
X038988Y031222D01*
X038937Y031233D01*
X038602D01*
X038588Y031266D01*
X038560Y031303D01*
X038583Y031347D01*
X039480D01*
X039531Y031358D01*
X039574Y031386D01*
X040494Y032306D01*
X040522Y032349D01*
X040533Y032400D01*
Y032698D01*
X040566Y032712D01*
X040635Y032765D01*
X040688Y032834D01*
X040722Y032914D01*
X040733Y033000D01*
X040722Y033086D01*
X040688Y033166D01*
X040635Y033235D01*
X040566Y033288D01*
X040486Y033322D01*
X040400Y033333D01*
D02*
G37*
G36*
X037772Y036963D02*
X037376D01*
Y036663D01*
X037090Y036378D01*
X037044Y036397D01*
Y036607D01*
X036876D01*
Y036331D01*
X036978D01*
X036997Y036285D01*
X035706Y034994D01*
X035678Y034951D01*
X035667Y034900D01*
Y030755D01*
X035145Y030233D01*
X033502D01*
X033488Y030266D01*
X033435Y030335D01*
X033366Y030388D01*
X033286Y030422D01*
X033200Y030433D01*
X033114Y030422D01*
X033034Y030388D01*
X032965Y030335D01*
X032912Y030266D01*
X032878Y030186D01*
X032867Y030100D01*
X032878Y030014D01*
X032912Y029934D01*
X032965Y029865D01*
X033034Y029812D01*
X033114Y029778D01*
X033200Y029767D01*
X033286Y029778D01*
X033366Y029812D01*
X033435Y029865D01*
X033488Y029934D01*
X033502Y029967D01*
X035200D01*
X035251Y029978D01*
X035294Y030006D01*
X035894Y030606D01*
X035922Y030649D01*
X035933Y030700D01*
Y034845D01*
X037438Y036351D01*
X037772D01*
Y036963D01*
D02*
G37*
G36*
X037044Y036983D02*
X036876D01*
Y036707D01*
X037044D01*
Y036983D01*
D02*
G37*
G36*
X036776D02*
X036608D01*
Y036707D01*
X036776D01*
Y036983D01*
D02*
G37*
G36*
X030844D02*
X030676D01*
Y036707D01*
X030844D01*
Y036983D01*
D02*
G37*
G36*
X043762Y041856D02*
X043129D01*
Y041371D01*
X042506Y040748D01*
X042478Y040705D01*
X042467Y040654D01*
Y037100D01*
X042478Y037049D01*
X042506Y037006D01*
X043006Y036506D01*
X043049Y036478D01*
X043100Y036467D01*
X044345D01*
X046106Y034706D01*
X046149Y034678D01*
X046200Y034667D01*
X047498D01*
X047512Y034634D01*
X047565Y034565D01*
X047634Y034512D01*
X047714Y034478D01*
X047800Y034467D01*
X047886Y034478D01*
X047966Y034512D01*
X048035Y034565D01*
X048088Y034634D01*
X048122Y034714D01*
X048133Y034800D01*
X048122Y034886D01*
X048088Y034966D01*
X048035Y035035D01*
X047966Y035088D01*
X047886Y035122D01*
X047800Y035133D01*
X047714Y035122D01*
X047634Y035088D01*
X047565Y035035D01*
X047512Y034966D01*
X047498Y034933D01*
X046255D01*
X044494Y036694D01*
X044455Y036720D01*
X044470Y036767D01*
X044645D01*
X046006Y035406D01*
X046049Y035378D01*
X046100Y035367D01*
X047198D01*
X047212Y035334D01*
X047265Y035265D01*
X047334Y035212D01*
X047414Y035178D01*
X047500Y035167D01*
X047586Y035178D01*
X047666Y035212D01*
X047735Y035265D01*
X047788Y035334D01*
X047822Y035414D01*
X047833Y035500D01*
X047822Y035586D01*
X047788Y035666D01*
X047735Y035735D01*
X047666Y035788D01*
X047586Y035822D01*
X047500Y035833D01*
X047466Y035828D01*
X047441Y035872D01*
X047488Y035934D01*
X047522Y036014D01*
X047533Y036100D01*
X047522Y036186D01*
X047488Y036266D01*
X047435Y036335D01*
X047366Y036388D01*
X047286Y036422D01*
X047200Y036433D01*
X047114Y036422D01*
X047034Y036388D01*
X046965Y036335D01*
X046912Y036266D01*
X046898Y036233D01*
X046155D01*
X045094Y037294D01*
X045051Y037322D01*
X045000Y037333D01*
X044201D01*
X044035Y037498D01*
X044054Y037544D01*
X044471D01*
Y037604D01*
X044515Y037626D01*
X044534Y037612D01*
X044614Y037578D01*
X044700Y037567D01*
X044786Y037578D01*
X044866Y037612D01*
X044935Y037665D01*
X044988Y037734D01*
X045022Y037814D01*
X045033Y037900D01*
X045022Y037986D01*
X044988Y038066D01*
X044935Y038135D01*
X044866Y038188D01*
X044786Y038222D01*
X044700Y038233D01*
X044614Y038222D01*
X044534Y038188D01*
X044515Y038174D01*
X044471Y038196D01*
Y038256D01*
X043838D01*
Y037760D01*
X043803Y037746D01*
X043762Y037774D01*
Y038256D01*
X043129D01*
Y037544D01*
X043614D01*
X044052Y037106D01*
X044091Y037080D01*
X044076Y037033D01*
X043555D01*
X043033Y037555D01*
Y038945D01*
X043432Y039344D01*
X043762D01*
Y040056D01*
X043129D01*
Y039417D01*
X042806Y039094D01*
X042780Y039055D01*
X042733Y039070D01*
Y040599D01*
X043278Y041144D01*
X043762D01*
Y041856D01*
D02*
G37*
G36*
X041300Y038383D02*
X041201Y038370D01*
X041108Y038332D01*
X041029Y038271D01*
X040968Y038192D01*
X040930Y038099D01*
X040917Y038000D01*
X040930Y037901D01*
X040968Y037808D01*
X041029Y037729D01*
X041108Y037668D01*
X041167Y037644D01*
Y037549D01*
X041102D01*
Y036937D01*
X041498D01*
Y037549D01*
X041433D01*
Y037644D01*
X041492Y037668D01*
X041571Y037729D01*
X041632Y037808D01*
X041670Y037901D01*
X041683Y038000D01*
X041670Y038099D01*
X041632Y038192D01*
X041571Y038271D01*
X041492Y038332D01*
X041399Y038370D01*
X041300Y038383D01*
D02*
G37*
G36*
X039680Y042380D02*
X038920D01*
Y041620D01*
X039680D01*
Y041867D01*
X039845D01*
X040267Y041445D01*
Y037402D01*
X040234Y037388D01*
X040165Y037335D01*
X040112Y037266D01*
X040078Y037186D01*
X040067Y037100D01*
X040078Y037014D01*
X040112Y036934D01*
X040165Y036865D01*
X040234Y036812D01*
X040314Y036778D01*
X040400Y036767D01*
X040486Y036778D01*
X040566Y036812D01*
X040635Y036865D01*
X040688Y036934D01*
X040722Y037014D01*
X040733Y037100D01*
X040722Y037186D01*
X040688Y037266D01*
X040635Y037335D01*
X040566Y037388D01*
X040533Y037402D01*
Y041500D01*
X040522Y041551D01*
X040494Y041594D01*
X039994Y042094D01*
X039951Y042122D01*
X039900Y042133D01*
X039680D01*
Y042380D01*
D02*
G37*
G36*
X040876Y036683D02*
X040708D01*
Y036407D01*
X040876D01*
Y036683D01*
D02*
G37*
G36*
X034944D02*
X034776D01*
Y036407D01*
X034944D01*
Y036683D01*
D02*
G37*
G36*
X034676D02*
X034508D01*
Y036407D01*
X034676D01*
Y036683D01*
D02*
G37*
G36*
X030576Y036983D02*
X030408D01*
Y036707D01*
X030576D01*
Y036983D01*
D02*
G37*
G36*
X046462Y038256D02*
X045829D01*
Y037544D01*
X045967D01*
Y037202D01*
X045934Y037188D01*
X045865Y037135D01*
X045812Y037066D01*
X045778Y036986D01*
X045767Y036900D01*
X045778Y036814D01*
X045812Y036734D01*
X045865Y036665D01*
X045934Y036612D01*
X046014Y036578D01*
X046100Y036567D01*
X046186Y036578D01*
X046266Y036612D01*
X046335Y036665D01*
X046388Y036734D01*
X046422Y036814D01*
X046433Y036900D01*
X046422Y036986D01*
X046388Y037066D01*
X046335Y037135D01*
X046266Y037188D01*
X046233Y037202D01*
Y037544D01*
X046462D01*
Y038256D01*
D02*
G37*
G36*
X041144Y036683D02*
X040976D01*
Y036407D01*
X041144D01*
Y036683D01*
D02*
G37*
%LPD*%
G36*
X042550Y027300D02*
X042593Y027271D01*
X042644Y027261D01*
X045014D01*
X045046Y027185D01*
X045112Y027098D01*
X045199Y027032D01*
X045214Y027025D01*
Y026975D01*
X045199Y026968D01*
X045112Y026902D01*
X045046Y026815D01*
X045014Y026739D01*
X042649D01*
X039107Y030280D01*
X039122Y030314D01*
X039133Y030400D01*
X039122Y030486D01*
X039088Y030566D01*
X039035Y030635D01*
X038966Y030688D01*
X038886Y030722D01*
X038800Y030733D01*
X038714Y030722D01*
X038634Y030688D01*
X038565Y030635D01*
X038512Y030566D01*
X038478Y030486D01*
X038473Y030441D01*
X038425Y030425D01*
X038070Y030780D01*
X038078Y030830D01*
X038097Y030840D01*
X038134Y030812D01*
X038214Y030778D01*
X038300Y030767D01*
X038386Y030778D01*
X038466Y030812D01*
X038535Y030865D01*
X038588Y030934D01*
X038602Y030967D01*
X038883D01*
X042550Y027300D01*
D02*
G37*
G36*
X046006Y036006D02*
X046049Y035978D01*
X046100Y035967D01*
X046898D01*
X046912Y035934D01*
X046965Y035865D01*
X047034Y035812D01*
X047114Y035778D01*
X047200Y035767D01*
X047234Y035772D01*
X047259Y035728D01*
X047212Y035666D01*
X047198Y035633D01*
X046155D01*
X044794Y036994D01*
X044755Y037020D01*
X044770Y037067D01*
X044945D01*
X046006Y036006D01*
D02*
G37*
D10*
X046146Y037900D02*
D03*
X046854D02*
D03*
X046146Y039700D02*
D03*
X046854D02*
D03*
X046146Y041500D02*
D03*
X046854D02*
D03*
X043446Y037900D02*
D03*
X044154D02*
D03*
X043446Y039700D02*
D03*
X044154D02*
D03*
X043446Y041500D02*
D03*
X044154D02*
D03*
D16*
X031500Y040500D02*
X032000Y041000D01*
X031500Y038500D02*
Y040500D01*
Y038500D02*
X032000Y038000D01*
X035100Y040860D02*
Y041000D01*
X034670Y040430D02*
X035100Y040860D01*
X034670Y038822D02*
Y040430D01*
Y038822D02*
X035100Y038392D01*
Y038000D02*
Y038392D01*
X038200Y040860D02*
Y041000D01*
X037770Y040430D02*
X038200Y040860D01*
X037770Y038822D02*
Y040430D01*
Y038822D02*
X038200Y038392D01*
Y038000D02*
Y038392D01*
X042600Y040654D02*
X043446Y041500D01*
X042600Y037100D02*
Y040654D01*
Y037100D02*
X043100Y036600D01*
X044400D01*
X046200Y034800D01*
X047800D01*
X042900Y039000D02*
X043446Y039546D01*
X042900Y037500D02*
Y039000D01*
Y037500D02*
X043500Y036900D01*
X044700D01*
X046100Y035500D01*
X047500D01*
X043446Y037900D02*
X044146Y037200D01*
X045000D01*
X046100Y036100D01*
X047200D01*
X046146Y040554D02*
Y041500D01*
Y040554D02*
X046200Y040500D01*
Y038800D02*
Y039646D01*
X046100Y037854D02*
X046146Y037900D01*
X046100Y036900D02*
Y037854D01*
X039060Y031660D02*
X039800Y032400D01*
X038068Y031660D02*
X039060D01*
X037740Y031332D02*
X038068Y031660D01*
X037740Y030668D02*
Y031332D01*
Y030668D02*
X040092Y028316D01*
Y024846D02*
Y028316D01*
X040400Y032400D02*
Y033000D01*
X039480Y031480D02*
X040400Y032400D01*
X037920Y030743D02*
Y031257D01*
Y030743D02*
X040880Y027783D01*
X038143Y031480D02*
X039480D01*
X037920Y031257D02*
X038143Y031480D01*
X040880Y025831D02*
Y027783D01*
X038937Y031100D02*
X042644Y027394D01*
X038300Y031100D02*
X038937D01*
X038800Y030400D02*
X042594Y026606D01*
X045408D01*
X042644Y027394D02*
X045408D01*
X041674Y036357D02*
X041700Y036331D01*
Y036100D02*
Y036331D01*
X041500Y035900D02*
X041700Y036100D01*
X037600Y035900D02*
X041500D01*
X036200Y034500D02*
X037600Y035900D01*
X036200Y030200D02*
Y034500D01*
X035300Y029300D02*
X036200Y030200D01*
X033200Y029300D02*
X035300D01*
X034900Y030900D02*
X035474Y031474D01*
X033200Y030900D02*
X034900D01*
X035800Y034900D02*
X037557Y036657D01*
X035800Y030700D02*
Y034900D01*
X035200Y030100D02*
X035800Y030700D01*
X033200Y030100D02*
X035200D01*
X035474Y031474D02*
Y036357D01*
X031374Y036657D02*
X031400Y036631D01*
Y036000D02*
Y036631D01*
X033100Y041000D02*
X034080Y040020D01*
Y036843D02*
Y040020D01*
X033400Y036163D02*
X034080Y036843D01*
X033400Y036100D02*
Y036163D01*
X032900Y036100D02*
X033400D01*
X032610Y039510D02*
X033100Y040000D01*
X032610Y037747D02*
Y039510D01*
X032500Y037637D02*
X032610Y037747D01*
X032500Y037100D02*
Y037637D01*
X033100Y039000D02*
X033900Y038200D01*
Y037200D02*
Y038200D01*
X033400Y036700D02*
X033900Y037200D01*
X035100Y037243D02*
Y038000D01*
X032000Y039000D02*
X032430Y038570D01*
Y037822D02*
Y038570D01*
X032100Y037492D02*
X032430Y037822D01*
X032100Y036300D02*
Y037492D01*
X033100Y038860D02*
Y039000D01*
X041300Y037243D02*
Y038000D01*
X037743Y037543D02*
X038200Y038000D01*
X037200Y037543D02*
X037743D01*
X031543D02*
X032000Y038000D01*
X031000Y037543D02*
X031543D01*
X038200Y042000D02*
X038770Y041430D01*
X039478D01*
X039730Y041178D01*
Y037822D02*
Y041178D01*
X039600Y037692D02*
X039730Y037822D01*
X039600Y037100D02*
Y037692D01*
X039300Y042000D02*
X039900D01*
X040400Y041500D01*
Y037100D02*
Y041500D01*
X038300Y039900D02*
X038700D01*
X038800Y039800D01*
Y037100D02*
Y039800D01*
X046854Y037900D02*
X047400D01*
X046854Y039700D02*
X047400D01*
X046854Y041500D02*
X047400D01*
X044154Y037900D02*
X044700D01*
X044154Y039700D02*
X044700D01*
X044154Y041500D02*
X044700D01*
D17*
X048000Y029900D02*
X048100Y030000D01*
X047000Y029900D02*
X048000D01*
X046392Y029292D02*
X047000Y029900D01*
X046392Y027394D02*
Y029292D01*
D18*
X044000Y030816D02*
D03*
Y032737D02*
D03*
D19*
X048270Y025539D02*
D03*
X043530D02*
D03*
D20*
X046392Y027394D02*
D03*
X045408D02*
D03*
Y026606D02*
D03*
X046392D02*
D03*
D21*
X039600Y023370D02*
D03*
D22*
X038320Y024846D02*
D03*
X040092D02*
D03*
X040880Y025831D02*
D03*
Y024846D02*
D03*
X039108D02*
D03*
X038320Y025831D02*
D03*
D23*
X039300Y042000D02*
D03*
X036200D02*
D03*
X033100D02*
D03*
X030000D02*
D03*
D24*
X039300Y041000D02*
D03*
Y040000D02*
D03*
Y039000D02*
D03*
Y038000D02*
D03*
X041300Y042000D02*
D03*
Y041000D02*
D03*
Y040000D02*
D03*
Y039000D02*
D03*
Y038000D02*
D03*
X036200Y041000D02*
D03*
Y040000D02*
D03*
Y039000D02*
D03*
Y038000D02*
D03*
X038200Y042000D02*
D03*
Y041000D02*
D03*
Y040000D02*
D03*
Y039000D02*
D03*
Y038000D02*
D03*
X033100Y041000D02*
D03*
Y040000D02*
D03*
Y039000D02*
D03*
Y038000D02*
D03*
X035100Y042000D02*
D03*
Y041000D02*
D03*
Y040000D02*
D03*
Y039000D02*
D03*
Y038000D02*
D03*
X030000Y041000D02*
D03*
Y040000D02*
D03*
Y039000D02*
D03*
Y038000D02*
D03*
X032000Y042000D02*
D03*
Y041000D02*
D03*
Y040000D02*
D03*
Y039000D02*
D03*
Y038000D02*
D03*
D25*
X048100Y029000D02*
D03*
D26*
Y030000D02*
D03*
Y031000D02*
D03*
Y032000D02*
D03*
Y033000D02*
D03*
Y034000D02*
D03*
D27*
X035250Y024500D02*
D03*
X030750D02*
D03*
D28*
X034248Y027000D02*
D03*
X033250D02*
D03*
X032250D02*
D03*
X031250D02*
D03*
X034750Y028000D02*
D03*
X033750D02*
D03*
X032750D02*
D03*
X031750D02*
D03*
D29*
X036600Y031500D02*
D03*
X042800Y031400D02*
D03*
X044600Y032000D02*
D03*
X047800Y034800D02*
D03*
X047500Y035500D02*
D03*
X047200Y036100D02*
D03*
X046200Y040500D02*
D03*
Y038800D02*
D03*
X046100Y036900D02*
D03*
X039800Y032400D02*
D03*
X040400Y033000D02*
D03*
X038800Y030400D02*
D03*
X038300Y031100D02*
D03*
X033200Y029300D02*
D03*
Y030900D02*
D03*
Y030100D02*
D03*
X031400Y036000D02*
D03*
X032900Y036100D02*
D03*
X032500Y037100D02*
D03*
X033400Y036700D02*
D03*
X032100Y036300D02*
D03*
X040400Y037100D02*
D03*
X039600D02*
D03*
X038800D02*
D03*
X044700Y039700D02*
D03*
X047400Y037900D02*
D03*
X044700D02*
D03*
X047400Y039700D02*
D03*
Y041500D02*
D03*
X044700D02*
D03*
D30*
X031374Y036657D02*
D03*
X030626D02*
D03*
X031000Y037543D02*
D03*
X035474Y036357D02*
D03*
X034726D02*
D03*
X035100Y037243D02*
D03*
X037574Y036657D02*
D03*
X036826D02*
D03*
X037200Y037543D02*
D03*
X041674Y036357D02*
D03*
X040926D02*
D03*
X041300Y037243D02*
D03*
M02*
