%FSAX24Y24*%
%MOIN*%
G70*
G01*
G75*
G04 Layer_Color=2752767*
%ADD10R,0.0472X0.0551*%
%ADD11R,0.0551X0.0472*%
%ADD12O,0.0217X0.0689*%
%ADD13O,0.0689X0.0217*%
%ADD14R,0.0433X0.0669*%
%ADD15C,0.0150*%
%ADD16C,0.0100*%
%ADD17C,0.0200*%
%ADD18C,0.0472*%
%ADD19C,0.1181*%
%ADD20C,0.0669*%
%ADD21C,0.1378*%
%ADD22C,0.0630*%
%ADD23R,0.0600X0.0600*%
%ADD24C,0.0600*%
%ADD25R,0.0591X0.0591*%
%ADD26C,0.0591*%
%ADD27C,0.0394*%
%ADD28C,0.0551*%
%ADD29C,0.0500*%
%ADD30R,0.0236X0.0453*%
%ADD31C,0.0118*%
%ADD32C,0.0079*%
%ADD33C,0.0236*%
%ADD34C,0.0098*%
%ADD35C,0.0050*%
%ADD36R,0.0532X0.0611*%
%ADD37R,0.0611X0.0532*%
%ADD38O,0.0277X0.0749*%
%ADD39O,0.0749X0.0277*%
%ADD40R,0.0493X0.0729*%
%ADD41C,0.0532*%
%ADD42C,0.1241*%
%ADD43C,0.0729*%
%ADD44C,0.1438*%
%ADD45C,0.0690*%
%ADD46R,0.0660X0.0660*%
%ADD47C,0.0660*%
%ADD48R,0.0651X0.0651*%
%ADD49C,0.0651*%
%ADD50C,0.1260*%
%ADD51C,0.0611*%
%ADD52C,0.0560*%
%ADD53R,0.0296X0.0513*%
%ADD54C,0.0067*%
D35*
X043800Y030616D02*
Y031016D01*
X044200D01*
Y030616D01*
X043800D01*
Y032537D02*
Y032937D01*
X044200D01*
Y032537D01*
X043800D01*
X046392Y027194D02*
X046192Y027594D01*
X046592D01*
X046392Y027194D01*
X045408D02*
X045208Y027594D01*
X045608D01*
X045408Y027194D01*
Y026406D02*
X045208Y026806D01*
X045608D01*
X045408Y026406D01*
X046392D02*
X046192Y026806D01*
X046592D01*
X046392Y026406D01*
X038320Y024646D02*
X038420Y024746D01*
X038520D01*
X038420Y024846D01*
X038520Y024946D01*
X038420D01*
X038320Y025046D01*
X038220Y024946D01*
X038120D01*
X038220Y024846D01*
X038120Y024746D01*
X038220D01*
X038320Y024646D01*
X040092D02*
X040192Y024746D01*
X040292D01*
X040192Y024846D01*
X040292Y024946D01*
X040192D01*
X040092Y025046D01*
X039992Y024946D01*
X039892D01*
X039992Y024846D01*
X039892Y024746D01*
X039992D01*
X040092Y024646D01*
X040880Y025631D02*
X040980Y025731D01*
X041080D01*
X040980Y025831D01*
X041080Y025931D01*
X040980D01*
X040880Y026031D01*
X040780Y025931D01*
X040680D01*
X040780Y025831D01*
X040680Y025731D01*
X040780D01*
X040880Y025631D01*
Y024646D02*
X040980Y024746D01*
X041080D01*
X040980Y024846D01*
X041080Y024946D01*
X040980D01*
X040880Y025046D01*
X040780Y024946D01*
X040680D01*
X040780Y024846D01*
X040680Y024746D01*
X040780D01*
X040880Y024646D01*
X039108D02*
X039208Y024746D01*
X039308D01*
X039208Y024846D01*
X039308Y024946D01*
X039208D01*
X039108Y025046D01*
X039008Y024946D01*
X038908D01*
X039008Y024846D01*
X038908Y024746D01*
X039008D01*
X039108Y024646D01*
X038320Y025631D02*
X038420Y025731D01*
X038520D01*
X038420Y025831D01*
X038520Y025931D01*
X038420D01*
X038320Y026031D01*
X038220Y025931D01*
X038120D01*
X038220Y025831D01*
X038120Y025731D01*
X038220D01*
X038320Y025631D01*
X039100Y041800D02*
X039200Y042000D01*
X039100Y042200D01*
X039300Y042100D01*
X039500Y042200D01*
X039400Y042000D01*
X039500Y041800D01*
X039300Y041900D01*
X039100Y041800D01*
Y040800D02*
X039200Y041000D01*
X039100Y041200D01*
X039300Y041100D01*
X039500Y041200D01*
X039400Y041000D01*
X039500Y040800D01*
X039300Y040900D01*
X039100Y040800D01*
Y039800D02*
X039200Y040000D01*
X039100Y040200D01*
X039300Y040100D01*
X039500Y040200D01*
X039400Y040000D01*
X039500Y039800D01*
X039300Y039900D01*
X039100Y039800D01*
Y038800D02*
X039200Y039000D01*
X039100Y039200D01*
X039300Y039100D01*
X039500Y039200D01*
X039400Y039000D01*
X039500Y038800D01*
X039300Y038900D01*
X039100Y038800D01*
Y037800D02*
X039200Y038000D01*
X039100Y038200D01*
X039300Y038100D01*
X039500Y038200D01*
X039400Y038000D01*
X039500Y037800D01*
X039300Y037900D01*
X039100Y037800D01*
X041100Y041800D02*
X041200Y042000D01*
X041100Y042200D01*
X041300Y042100D01*
X041500Y042200D01*
X041400Y042000D01*
X041500Y041800D01*
X041300Y041900D01*
X041100Y041800D01*
Y040800D02*
X041200Y041000D01*
X041100Y041200D01*
X041300Y041100D01*
X041500Y041200D01*
X041400Y041000D01*
X041500Y040800D01*
X041300Y040900D01*
X041100Y040800D01*
Y039800D02*
X041200Y040000D01*
X041100Y040200D01*
X041300Y040100D01*
X041500Y040200D01*
X041400Y040000D01*
X041500Y039800D01*
X041300Y039900D01*
X041100Y039800D01*
Y038800D02*
X041200Y039000D01*
X041100Y039200D01*
X041300Y039100D01*
X041500Y039200D01*
X041400Y039000D01*
X041500Y038800D01*
X041300Y038900D01*
X041100Y038800D01*
Y037800D02*
X041200Y038000D01*
X041100Y038200D01*
X041300Y038100D01*
X041500Y038200D01*
X041400Y038000D01*
X041500Y037800D01*
X041300Y037900D01*
X041100Y037800D01*
X036000Y041800D02*
X036100Y042000D01*
X036000Y042200D01*
X036200Y042100D01*
X036400Y042200D01*
X036300Y042000D01*
X036400Y041800D01*
X036200Y041900D01*
X036000Y041800D01*
Y040800D02*
X036100Y041000D01*
X036000Y041200D01*
X036200Y041100D01*
X036400Y041200D01*
X036300Y041000D01*
X036400Y040800D01*
X036200Y040900D01*
X036000Y040800D01*
Y039800D02*
X036100Y040000D01*
X036000Y040200D01*
X036200Y040100D01*
X036400Y040200D01*
X036300Y040000D01*
X036400Y039800D01*
X036200Y039900D01*
X036000Y039800D01*
Y038800D02*
X036100Y039000D01*
X036000Y039200D01*
X036200Y039100D01*
X036400Y039200D01*
X036300Y039000D01*
X036400Y038800D01*
X036200Y038900D01*
X036000Y038800D01*
Y037800D02*
X036100Y038000D01*
X036000Y038200D01*
X036200Y038100D01*
X036400Y038200D01*
X036300Y038000D01*
X036400Y037800D01*
X036200Y037900D01*
X036000Y037800D01*
X038000Y041800D02*
X038100Y042000D01*
X038000Y042200D01*
X038200Y042100D01*
X038400Y042200D01*
X038300Y042000D01*
X038400Y041800D01*
X038200Y041900D01*
X038000Y041800D01*
Y040800D02*
X038100Y041000D01*
X038000Y041200D01*
X038200Y041100D01*
X038400Y041200D01*
X038300Y041000D01*
X038400Y040800D01*
X038200Y040900D01*
X038000Y040800D01*
Y039800D02*
X038100Y040000D01*
X038000Y040200D01*
X038200Y040100D01*
X038400Y040200D01*
X038300Y040000D01*
X038400Y039800D01*
X038200Y039900D01*
X038000Y039800D01*
Y038800D02*
X038100Y039000D01*
X038000Y039200D01*
X038200Y039100D01*
X038400Y039200D01*
X038300Y039000D01*
X038400Y038800D01*
X038200Y038900D01*
X038000Y038800D01*
Y037800D02*
X038100Y038000D01*
X038000Y038200D01*
X038200Y038100D01*
X038400Y038200D01*
X038300Y038000D01*
X038400Y037800D01*
X038200Y037900D01*
X038000Y037800D01*
X032900Y041800D02*
X033000Y042000D01*
X032900Y042200D01*
X033100Y042100D01*
X033300Y042200D01*
X033200Y042000D01*
X033300Y041800D01*
X033100Y041900D01*
X032900Y041800D01*
Y040800D02*
X033000Y041000D01*
X032900Y041200D01*
X033100Y041100D01*
X033300Y041200D01*
X033200Y041000D01*
X033300Y040800D01*
X033100Y040900D01*
X032900Y040800D01*
Y039800D02*
X033000Y040000D01*
X032900Y040200D01*
X033100Y040100D01*
X033300Y040200D01*
X033200Y040000D01*
X033300Y039800D01*
X033100Y039900D01*
X032900Y039800D01*
Y038800D02*
X033000Y039000D01*
X032900Y039200D01*
X033100Y039100D01*
X033300Y039200D01*
X033200Y039000D01*
X033300Y038800D01*
X033100Y038900D01*
X032900Y038800D01*
Y037800D02*
X033000Y038000D01*
X032900Y038200D01*
X033100Y038100D01*
X033300Y038200D01*
X033200Y038000D01*
X033300Y037800D01*
X033100Y037900D01*
X032900Y037800D01*
X034900Y041800D02*
X035000Y042000D01*
X034900Y042200D01*
X035100Y042100D01*
X035300Y042200D01*
X035200Y042000D01*
X035300Y041800D01*
X035100Y041900D01*
X034900Y041800D01*
Y040800D02*
X035000Y041000D01*
X034900Y041200D01*
X035100Y041100D01*
X035300Y041200D01*
X035200Y041000D01*
X035300Y040800D01*
X035100Y040900D01*
X034900Y040800D01*
Y039800D02*
X035000Y040000D01*
X034900Y040200D01*
X035100Y040100D01*
X035300Y040200D01*
X035200Y040000D01*
X035300Y039800D01*
X035100Y039900D01*
X034900Y039800D01*
Y038800D02*
X035000Y039000D01*
X034900Y039200D01*
X035100Y039100D01*
X035300Y039200D01*
X035200Y039000D01*
X035300Y038800D01*
X035100Y038900D01*
X034900Y038800D01*
Y037800D02*
X035000Y038000D01*
X034900Y038200D01*
X035100Y038100D01*
X035300Y038200D01*
X035200Y038000D01*
X035300Y037800D01*
X035100Y037900D01*
X034900Y037800D01*
X029800Y041800D02*
X029900Y042000D01*
X029800Y042200D01*
X030000Y042100D01*
X030200Y042200D01*
X030100Y042000D01*
X030200Y041800D01*
X030000Y041900D01*
X029800Y041800D01*
Y040800D02*
X029900Y041000D01*
X029800Y041200D01*
X030000Y041100D01*
X030200Y041200D01*
X030100Y041000D01*
X030200Y040800D01*
X030000Y040900D01*
X029800Y040800D01*
Y039800D02*
X029900Y040000D01*
X029800Y040200D01*
X030000Y040100D01*
X030200Y040200D01*
X030100Y040000D01*
X030200Y039800D01*
X030000Y039900D01*
X029800Y039800D01*
Y038800D02*
X029900Y039000D01*
X029800Y039200D01*
X030000Y039100D01*
X030200Y039200D01*
X030100Y039000D01*
X030200Y038800D01*
X030000Y038900D01*
X029800Y038800D01*
Y037800D02*
X029900Y038000D01*
X029800Y038200D01*
X030000Y038100D01*
X030200Y038200D01*
X030100Y038000D01*
X030200Y037800D01*
X030000Y037900D01*
X029800Y037800D01*
X031800Y041800D02*
X031900Y042000D01*
X031800Y042200D01*
X032000Y042100D01*
X032200Y042200D01*
X032100Y042000D01*
X032200Y041800D01*
X032000Y041900D01*
X031800Y041800D01*
Y040800D02*
X031900Y041000D01*
X031800Y041200D01*
X032000Y041100D01*
X032200Y041200D01*
X032100Y041000D01*
X032200Y040800D01*
X032000Y040900D01*
X031800Y040800D01*
Y039800D02*
X031900Y040000D01*
X031800Y040200D01*
X032000Y040100D01*
X032200Y040200D01*
X032100Y040000D01*
X032200Y039800D01*
X032000Y039900D01*
X031800Y039800D01*
Y038800D02*
X031900Y039000D01*
X031800Y039200D01*
X032000Y039100D01*
X032200Y039200D01*
X032100Y039000D01*
X032200Y038800D01*
X032000Y038900D01*
X031800Y038800D01*
Y037800D02*
X031900Y038000D01*
X031800Y038200D01*
X032000Y038100D01*
X032200Y038200D01*
X032100Y038000D01*
X032200Y037800D01*
X032000Y037900D01*
X031800Y037800D01*
X048100Y028800D02*
X048200Y028900D01*
X048300D01*
X048200Y029000D01*
X048300Y029100D01*
X048200D01*
X048100Y029200D01*
X048000Y029100D01*
X047900D01*
X048000Y029000D01*
X047900Y028900D01*
X048000D01*
X048100Y028800D01*
Y029800D02*
X048200Y029900D01*
X048300D01*
X048200Y030000D01*
X048300Y030100D01*
X048200D01*
X048100Y030200D01*
X048000Y030100D01*
X047900D01*
X048000Y030000D01*
X047900Y029900D01*
X048000D01*
X048100Y029800D01*
Y030800D02*
X048200Y030900D01*
X048300D01*
X048200Y031000D01*
X048300Y031100D01*
X048200D01*
X048100Y031200D01*
X048000Y031100D01*
X047900D01*
X048000Y031000D01*
X047900Y030900D01*
X048000D01*
X048100Y030800D01*
Y031800D02*
X048200Y031900D01*
X048300D01*
X048200Y032000D01*
X048300Y032100D01*
X048200D01*
X048100Y032200D01*
X048000Y032100D01*
X047900D01*
X048000Y032000D01*
X047900Y031900D01*
X048000D01*
X048100Y031800D01*
Y032800D02*
X048200Y032900D01*
X048300D01*
X048200Y033000D01*
X048300Y033100D01*
X048200D01*
X048100Y033200D01*
X048000Y033100D01*
X047900D01*
X048000Y033000D01*
X047900Y032900D01*
X048000D01*
X048100Y032800D01*
Y033800D02*
X048200Y033900D01*
X048300D01*
X048200Y034000D01*
X048300Y034100D01*
X048200D01*
X048100Y034200D01*
X048000Y034100D01*
X047900D01*
X048000Y034000D01*
X047900Y033900D01*
X048000D01*
X048100Y033800D01*
X035150Y024400D02*
Y024300D01*
X035350D01*
Y024400D01*
X035450D01*
Y024600D01*
X035350D01*
Y024700D01*
X035150D01*
Y024600D01*
X035050D01*
Y024400D01*
X035150D01*
X034048Y026800D02*
X034148D01*
X034248Y026900D01*
X034348Y026800D01*
X034448D01*
Y026900D01*
X034348Y027000D01*
X034448Y027100D01*
Y027200D01*
X034348D01*
X034248Y027100D01*
X034148Y027200D01*
X034048D01*
Y027100D01*
X034148Y027000D01*
X034048Y026900D01*
Y026800D01*
X033050D02*
X033150D01*
X033250Y026900D01*
X033350Y026800D01*
X033450D01*
Y026900D01*
X033350Y027000D01*
X033450Y027100D01*
Y027200D01*
X033350D01*
X033250Y027100D01*
X033150Y027200D01*
X033050D01*
Y027100D01*
X033150Y027000D01*
X033050Y026900D01*
Y026800D01*
X032050D02*
X032150D01*
X032250Y026900D01*
X032350Y026800D01*
X032450D01*
Y026900D01*
X032350Y027000D01*
X032450Y027100D01*
Y027200D01*
X032350D01*
X032250Y027100D01*
X032150Y027200D01*
X032050D01*
Y027100D01*
X032150Y027000D01*
X032050Y026900D01*
Y026800D01*
X031050D02*
X031150D01*
X031250Y026900D01*
X031350Y026800D01*
X031450D01*
Y026900D01*
X031350Y027000D01*
X031450Y027100D01*
Y027200D01*
X031350D01*
X031250Y027100D01*
X031150Y027200D01*
X031050D01*
Y027100D01*
X031150Y027000D01*
X031050Y026900D01*
Y026800D01*
X034550Y027800D02*
X034650D01*
X034750Y027900D01*
X034850Y027800D01*
X034950D01*
Y027900D01*
X034850Y028000D01*
X034950Y028100D01*
Y028200D01*
X034850D01*
X034750Y028100D01*
X034650Y028200D01*
X034550D01*
Y028100D01*
X034650Y028000D01*
X034550Y027900D01*
Y027800D01*
X033550D02*
X033650D01*
X033750Y027900D01*
X033850Y027800D01*
X033950D01*
Y027900D01*
X033850Y028000D01*
X033950Y028100D01*
Y028200D01*
X033850D01*
X033750Y028100D01*
X033650Y028200D01*
X033550D01*
Y028100D01*
X033650Y028000D01*
X033550Y027900D01*
Y027800D01*
X032550D02*
X032650D01*
X032750Y027900D01*
X032850Y027800D01*
X032950D01*
Y027900D01*
X032850Y028000D01*
X032950Y028100D01*
Y028200D01*
X032850D01*
X032750Y028100D01*
X032650Y028200D01*
X032550D01*
Y028100D01*
X032650Y028000D01*
X032550Y027900D01*
Y027800D01*
X031550D02*
X031650D01*
X031750Y027900D01*
X031850Y027800D01*
X031950D01*
Y027900D01*
X031850Y028000D01*
X031950Y028100D01*
Y028200D01*
X031850D01*
X031750Y028100D01*
X031650Y028200D01*
X031550D01*
Y028100D01*
X031650Y028000D01*
X031550Y027900D01*
Y027800D01*
X030650Y024400D02*
Y024300D01*
X030850D01*
Y024400D01*
X030950D01*
Y024600D01*
X030850D01*
Y024700D01*
X030650D01*
Y024600D01*
X030550D01*
Y024400D01*
X030650D01*
X036400Y031500D02*
X036600Y031700D01*
X036800Y031500D01*
X036600Y031300D01*
X036400Y031500D01*
X042600Y031400D02*
X042800Y031600D01*
X043000Y031400D01*
X042800Y031200D01*
X042600Y031400D01*
X044400Y032000D02*
X044600Y032200D01*
X044800Y032000D01*
X044600Y031800D01*
X044400Y032000D01*
X047600Y034800D02*
X047800Y035000D01*
X048000Y034800D01*
X047800Y034600D01*
X047600Y034800D01*
X047300Y035500D02*
X047500Y035700D01*
X047700Y035500D01*
X047500Y035300D01*
X047300Y035500D01*
X047000Y036100D02*
X047200Y036300D01*
X047400Y036100D01*
X047200Y035900D01*
X047000Y036100D01*
X046000Y040500D02*
X046200Y040700D01*
X046400Y040500D01*
X046200Y040300D01*
X046000Y040500D01*
Y038800D02*
X046200Y039000D01*
X046400Y038800D01*
X046200Y038600D01*
X046000Y038800D01*
X045900Y036900D02*
X046100Y037100D01*
X046300Y036900D01*
X046100Y036700D01*
X045900Y036900D01*
X039600Y032400D02*
X039800Y032600D01*
X040000Y032400D01*
X039800Y032200D01*
X039600Y032400D01*
X040200Y033000D02*
X040400Y033200D01*
X040600Y033000D01*
X040400Y032800D01*
X040200Y033000D01*
X038600Y030400D02*
X038800Y030600D01*
X039000Y030400D01*
X038800Y030200D01*
X038600Y030400D01*
X038100Y031100D02*
X038300Y031300D01*
X038500Y031100D01*
X038300Y030900D01*
X038100Y031100D01*
X033000Y029300D02*
X033200Y029500D01*
X033400Y029300D01*
X033200Y029100D01*
X033000Y029300D01*
Y030900D02*
X033200Y031100D01*
X033400Y030900D01*
X033200Y030700D01*
X033000Y030900D01*
Y030100D02*
X033200Y030300D01*
X033400Y030100D01*
X033200Y029900D01*
X033000Y030100D01*
X031200Y036000D02*
X031400Y036200D01*
X031600Y036000D01*
X031400Y035800D01*
X031200Y036000D01*
X032700Y036100D02*
X032900Y036300D01*
X033100Y036100D01*
X032900Y035900D01*
X032700Y036100D01*
X032300Y037100D02*
X032500Y037300D01*
X032700Y037100D01*
X032500Y036900D01*
X032300Y037100D01*
X033200Y036700D02*
X033400Y036900D01*
X033600Y036700D01*
X033400Y036500D01*
X033200Y036700D01*
X031900Y036300D02*
X032100Y036500D01*
X032300Y036300D01*
X032100Y036100D01*
X031900Y036300D01*
X040200Y037100D02*
X040400Y037300D01*
X040600Y037100D01*
X040400Y036900D01*
X040200Y037100D01*
X039400D02*
X039600Y037300D01*
X039800Y037100D01*
X039600Y036900D01*
X039400Y037100D01*
X038600D02*
X038800Y037300D01*
X039000Y037100D01*
X038800Y036900D01*
X038600Y037100D01*
X044500Y039700D02*
X044700Y039900D01*
X044900Y039700D01*
X044700Y039500D01*
X044500Y039700D01*
X047200Y037900D02*
X047400Y038100D01*
X047600Y037900D01*
X047400Y037700D01*
X047200Y037900D01*
X044500D02*
X044700Y038100D01*
X044900Y037900D01*
X044700Y037700D01*
X044500Y037900D01*
X047200Y039700D02*
X047400Y039900D01*
X047600Y039700D01*
X047400Y039500D01*
X047200Y039700D01*
Y041500D02*
X047400Y041700D01*
X047600Y041500D01*
X047400Y041300D01*
X047200Y041500D01*
X044500D02*
X044700Y041700D01*
X044900Y041500D01*
X044700Y041300D01*
X044500Y041500D01*
D54*
X048470Y025539D02*
G03*
X048470Y025539I-000200J000000D01*
G01*
X043730D02*
G03*
X043730Y025539I-000200J000000D01*
G01*
X039800Y023370D02*
G03*
X039800Y023370I-000200J000000D01*
G01*
M02*
