%FSAX24Y24*%
%MOIN*%
G70*
G01*
G75*
G04 Layer_Color=8388736*
%ADD10R,0.0472X0.0551*%
%ADD11R,0.0551X0.0472*%
%ADD12O,0.0217X0.0689*%
%ADD13O,0.0689X0.0217*%
%ADD14R,0.0433X0.0669*%
%ADD15C,0.0150*%
%ADD16C,0.0100*%
%ADD17C,0.0200*%
%ADD18C,0.0472*%
%ADD19C,0.1181*%
%ADD20C,0.0669*%
%ADD21C,0.1378*%
%ADD22C,0.0630*%
%ADD23R,0.0600X0.0600*%
%ADD24C,0.0600*%
%ADD25R,0.0591X0.0591*%
%ADD26C,0.0591*%
%ADD27C,0.0394*%
%ADD28C,0.0551*%
%ADD29C,0.0500*%
%ADD30R,0.0236X0.0453*%
%ADD31C,0.0118*%
%ADD32C,0.0079*%
%ADD33C,0.0236*%
%ADD34C,0.0098*%
%ADD35C,0.0050*%
%ADD36R,0.0532X0.0611*%
%ADD37R,0.0611X0.0532*%
%ADD38O,0.0277X0.0749*%
%ADD39O,0.0749X0.0277*%
%ADD40R,0.0493X0.0729*%
%ADD41C,0.0532*%
%ADD42C,0.1241*%
%ADD43C,0.0729*%
%ADD44C,0.1438*%
%ADD45C,0.0690*%
%ADD46R,0.0660X0.0660*%
%ADD47C,0.0660*%
%ADD48R,0.0651X0.0651*%
%ADD49C,0.0651*%
%ADD50C,0.1260*%
%ADD51C,0.0611*%
%ADD52C,0.0560*%
D36*
X036146Y034700D02*
D03*
X036854D02*
D03*
X036146Y035500D02*
D03*
X036854D02*
D03*
X043554Y035400D02*
D03*
X042846D02*
D03*
X043554Y034600D02*
D03*
X042846D02*
D03*
X041854Y027200D02*
D03*
X041146D02*
D03*
X034654Y029300D02*
D03*
X033946D02*
D03*
X034654Y030100D02*
D03*
X033946D02*
D03*
X034654Y030900D02*
D03*
X033946D02*
D03*
X034654Y032500D02*
D03*
X033946D02*
D03*
X034654Y033300D02*
D03*
X033946D02*
D03*
X034654Y034100D02*
D03*
X033946D02*
D03*
X034654Y031700D02*
D03*
X033946D02*
D03*
X034654Y034900D02*
D03*
X033946D02*
D03*
D37*
X029400Y026646D02*
D03*
Y027354D02*
D03*
X049400Y026646D02*
D03*
Y027354D02*
D03*
X045500Y033554D02*
D03*
Y032846D02*
D03*
Y031346D02*
D03*
Y032054D02*
D03*
X041200Y036354D02*
D03*
Y035646D02*
D03*
X038000Y035646D02*
D03*
Y036354D02*
D03*
X038800Y035646D02*
D03*
Y036354D02*
D03*
X039600Y035646D02*
D03*
Y036354D02*
D03*
X040400Y035646D02*
D03*
Y036354D02*
D03*
D38*
X037925Y033924D02*
D03*
X038240D02*
D03*
X038555D02*
D03*
X038870D02*
D03*
X039185D02*
D03*
X039500D02*
D03*
X039815D02*
D03*
X040130D02*
D03*
X040445D02*
D03*
X040760D02*
D03*
X041075D02*
D03*
Y029476D02*
D03*
X040760D02*
D03*
X040445D02*
D03*
X040130D02*
D03*
X039815D02*
D03*
X039500D02*
D03*
X039185D02*
D03*
X038870D02*
D03*
X038555D02*
D03*
X038240D02*
D03*
X037925D02*
D03*
D39*
X041724Y033275D02*
D03*
Y032960D02*
D03*
Y032645D02*
D03*
Y032330D02*
D03*
Y032015D02*
D03*
Y031700D02*
D03*
Y031385D02*
D03*
Y031070D02*
D03*
Y030755D02*
D03*
Y030440D02*
D03*
Y030125D02*
D03*
X037276D02*
D03*
Y030440D02*
D03*
Y030755D02*
D03*
Y031070D02*
D03*
Y031385D02*
D03*
Y031700D02*
D03*
Y032015D02*
D03*
Y032330D02*
D03*
Y032645D02*
D03*
Y032960D02*
D03*
Y033275D02*
D03*
D40*
X048032Y037900D02*
D03*
X046968D02*
D03*
X045332D02*
D03*
X044268D02*
D03*
X048032Y039700D02*
D03*
X046968D02*
D03*
X045332D02*
D03*
X044268D02*
D03*
X048032Y041500D02*
D03*
X046968D02*
D03*
X045332D02*
D03*
X044268D02*
D03*
D41*
X044000Y030816D02*
D03*
Y032737D02*
D03*
D42*
X048270Y025539D02*
D03*
X043530D02*
D03*
D43*
X046392Y027394D02*
D03*
X045408D02*
D03*
Y026606D02*
D03*
X046392D02*
D03*
D44*
X039600Y023370D02*
D03*
D45*
X038320Y024846D02*
D03*
X040092D02*
D03*
X040880Y025831D02*
D03*
Y024846D02*
D03*
X039108D02*
D03*
X038320Y025831D02*
D03*
D46*
X039300Y042000D02*
D03*
X036200D02*
D03*
X033100D02*
D03*
X030000D02*
D03*
D47*
X039300Y041000D02*
D03*
Y040000D02*
D03*
Y039000D02*
D03*
Y038000D02*
D03*
X041300Y042000D02*
D03*
Y041000D02*
D03*
Y040000D02*
D03*
Y039000D02*
D03*
Y038000D02*
D03*
X036200Y041000D02*
D03*
Y040000D02*
D03*
Y039000D02*
D03*
Y038000D02*
D03*
X038200Y042000D02*
D03*
Y041000D02*
D03*
Y040000D02*
D03*
Y039000D02*
D03*
Y038000D02*
D03*
X033100Y041000D02*
D03*
Y040000D02*
D03*
Y039000D02*
D03*
Y038000D02*
D03*
X035100Y042000D02*
D03*
Y041000D02*
D03*
Y040000D02*
D03*
Y039000D02*
D03*
Y038000D02*
D03*
X030000Y041000D02*
D03*
Y040000D02*
D03*
Y039000D02*
D03*
Y038000D02*
D03*
X032000Y042000D02*
D03*
Y041000D02*
D03*
Y040000D02*
D03*
Y039000D02*
D03*
Y038000D02*
D03*
D48*
X048100Y029000D02*
D03*
D49*
Y030000D02*
D03*
Y031000D02*
D03*
Y032000D02*
D03*
Y033000D02*
D03*
Y034000D02*
D03*
D50*
X035250Y024500D02*
D03*
X030750D02*
D03*
D51*
X034248Y027000D02*
D03*
X033250D02*
D03*
X032250D02*
D03*
X031250D02*
D03*
X034750Y028000D02*
D03*
X033750D02*
D03*
X032750D02*
D03*
X031750D02*
D03*
D52*
X044700Y039700D02*
D03*
X047400Y037900D02*
D03*
X044700D02*
D03*
X047400Y039700D02*
D03*
Y041500D02*
D03*
X044700D02*
D03*
M02*
