%FSAX24Y24*%
%MOIN*%
G70*
G01*
G75*
%ADD10R,0.0472X0.0551*%
%ADD11R,0.0551X0.0472*%
%ADD12O,0.0217X0.0689*%
%ADD13O,0.0689X0.0217*%
%ADD14R,0.0433X0.0669*%
%ADD15C,0.0150*%
%ADD16C,0.0100*%
%ADD17C,0.0200*%
%ADD18C,0.0472*%
%ADD19C,0.1181*%
%ADD20C,0.0669*%
%ADD21C,0.1378*%
%ADD22C,0.0630*%
%ADD23R,0.0600X0.0600*%
%ADD24C,0.0600*%
%ADD25R,0.0591X0.0591*%
%ADD26C,0.0591*%
%ADD27C,0.0394*%
%ADD28C,0.0551*%
%ADD29C,0.0500*%
%ADD30R,0.0236X0.0453*%
%ADD31C,0.0118*%
%ADD32C,0.0079*%
%ADD33C,0.0236*%
%ADD34C,0.0098*%
%ADD35C,0.0050*%
%ADD36R,0.0532X0.0611*%
%ADD37R,0.0611X0.0532*%
%ADD38O,0.0277X0.0749*%
%ADD39O,0.0749X0.0277*%
%ADD40R,0.0493X0.0729*%
%ADD41C,0.0532*%
%ADD42C,0.1241*%
%ADD43C,0.0729*%
%ADD44C,0.1438*%
%ADD45C,0.0690*%
%ADD46R,0.0660X0.0660*%
%ADD47C,0.0660*%
%ADD48R,0.0651X0.0651*%
%ADD49C,0.0651*%
%ADD50C,0.1260*%
%ADD51C,0.0611*%
%ADD52C,0.0560*%
%ADD53R,0.0296X0.0513*%
%ADD54C,0.0067*%
D35*
X043891Y030816D02*
X044109D01*
X044000Y030707D02*
Y030925D01*
X043891Y032737D02*
X044109D01*
X044000Y032628D02*
Y032846D01*
X047817Y025539D02*
X048723D01*
X048270Y025087D02*
Y025992D01*
X046195Y027394D02*
X046589D01*
X046392Y027197D02*
Y027591D01*
X045211Y027394D02*
X045605D01*
X045408Y027197D02*
Y027591D01*
X045211Y026606D02*
X045605D01*
X045408Y026409D02*
Y026803D01*
X046195Y026606D02*
X046589D01*
X046392Y026409D02*
Y026803D01*
X043077Y025539D02*
X043983D01*
X043530Y025087D02*
Y025992D01*
X039147Y023370D02*
X040053D01*
X039600Y022917D02*
Y023823D01*
X038143Y024846D02*
X038498D01*
X038320Y024669D02*
Y025024D01*
X039915Y024846D02*
X040269D01*
X040092Y024669D02*
Y025024D01*
X040702Y025831D02*
X041057D01*
X040880Y025654D02*
Y026008D01*
X040702Y024846D02*
X041057D01*
X040880Y024669D02*
Y025024D01*
X038931Y024846D02*
X039285D01*
X039108Y024669D02*
Y025024D01*
X038143Y025831D02*
X038498D01*
X038320Y025654D02*
Y026008D01*
X039125Y042000D02*
X039475D01*
X039300Y041825D02*
Y042175D01*
X039125Y041000D02*
X039475D01*
X039300Y040825D02*
Y041175D01*
X039125Y040000D02*
X039475D01*
X039300Y039825D02*
Y040175D01*
X039125Y039000D02*
X039475D01*
X039300Y038825D02*
Y039175D01*
X039125Y038000D02*
X039475D01*
X039300Y037825D02*
Y038175D01*
X041125Y042000D02*
X041475D01*
X041300Y041825D02*
Y042175D01*
X041125Y041000D02*
X041475D01*
X041300Y040825D02*
Y041175D01*
X041125Y040000D02*
X041475D01*
X041300Y039825D02*
Y040175D01*
X041125Y039000D02*
X041475D01*
X041300Y038825D02*
Y039175D01*
X041125Y038000D02*
X041475D01*
X041300Y037825D02*
Y038175D01*
X036025Y042000D02*
X036375D01*
X036200Y041825D02*
Y042175D01*
X036025Y041000D02*
X036375D01*
X036200Y040825D02*
Y041175D01*
X036025Y040000D02*
X036375D01*
X036200Y039825D02*
Y040175D01*
X036025Y039000D02*
X036375D01*
X036200Y038825D02*
Y039175D01*
X036025Y038000D02*
X036375D01*
X036200Y037825D02*
Y038175D01*
X038025Y042000D02*
X038375D01*
X038200Y041825D02*
Y042175D01*
X038025Y041000D02*
X038375D01*
X038200Y040825D02*
Y041175D01*
X038025Y040000D02*
X038375D01*
X038200Y039825D02*
Y040175D01*
X038025Y039000D02*
X038375D01*
X038200Y038825D02*
Y039175D01*
X038025Y038000D02*
X038375D01*
X038200Y037825D02*
Y038175D01*
X032925Y042000D02*
X033275D01*
X033100Y041825D02*
Y042175D01*
X032925Y041000D02*
X033275D01*
X033100Y040825D02*
Y041175D01*
X032925Y040000D02*
X033275D01*
X033100Y039825D02*
Y040175D01*
X032925Y039000D02*
X033275D01*
X033100Y038825D02*
Y039175D01*
X032925Y038000D02*
X033275D01*
X033100Y037825D02*
Y038175D01*
X034925Y042000D02*
X035275D01*
X035100Y041825D02*
Y042175D01*
X034925Y041000D02*
X035275D01*
X035100Y040825D02*
Y041175D01*
X034925Y040000D02*
X035275D01*
X035100Y039825D02*
Y040175D01*
X034925Y039000D02*
X035275D01*
X035100Y038825D02*
Y039175D01*
X034925Y038000D02*
X035275D01*
X035100Y037825D02*
Y038175D01*
X029825Y042000D02*
X030175D01*
X030000Y041825D02*
Y042175D01*
X029825Y041000D02*
X030175D01*
X030000Y040825D02*
Y041175D01*
X029825Y040000D02*
X030175D01*
X030000Y039825D02*
Y040175D01*
X029825Y039000D02*
X030175D01*
X030000Y038825D02*
Y039175D01*
X029825Y038000D02*
X030175D01*
X030000Y037825D02*
Y038175D01*
X031825Y042000D02*
X032175D01*
X032000Y041825D02*
Y042175D01*
X031825Y041000D02*
X032175D01*
X032000Y040825D02*
Y041175D01*
X031825Y040000D02*
X032175D01*
X032000Y039825D02*
Y040175D01*
X031825Y039000D02*
X032175D01*
X032000Y038825D02*
Y039175D01*
X031825Y038000D02*
X032175D01*
X032000Y037825D02*
Y038175D01*
X047923Y029000D02*
X048277D01*
X048100Y028823D02*
Y029177D01*
X047923Y030000D02*
X048277D01*
X048100Y029823D02*
Y030177D01*
X047923Y031000D02*
X048277D01*
X048100Y030823D02*
Y031177D01*
X047923Y032000D02*
X048277D01*
X048100Y031823D02*
Y032177D01*
X047923Y033000D02*
X048277D01*
X048100Y032823D02*
Y033177D01*
X047923Y034000D02*
X048277D01*
X048100Y033823D02*
Y034177D01*
X034620Y024500D02*
X035880D01*
X035250Y023870D02*
Y025130D01*
X034111Y027000D02*
X034386D01*
X034248Y026862D02*
Y027138D01*
X033112Y027000D02*
X033388D01*
X033250Y026862D02*
Y027138D01*
X032112Y027000D02*
X032388D01*
X032250Y026862D02*
Y027138D01*
X031112Y027000D02*
X031388D01*
X031250Y026862D02*
Y027138D01*
X034612Y028000D02*
X034888D01*
X034750Y027862D02*
Y028138D01*
X033612Y028000D02*
X033888D01*
X033750Y027862D02*
Y028138D01*
X032612Y028000D02*
X032888D01*
X032750Y027862D02*
Y028138D01*
X031612Y028000D02*
X031888D01*
X031750Y027862D02*
Y028138D01*
X030120Y024500D02*
X031380D01*
X030750Y023870D02*
Y025130D01*
X036460Y031500D02*
X036740D01*
X036600Y031360D02*
Y031640D01*
X042660Y031400D02*
X042940D01*
X042800Y031260D02*
Y031540D01*
X044460Y032000D02*
X044740D01*
X044600Y031860D02*
Y032140D01*
X047660Y034800D02*
X047940D01*
X047800Y034660D02*
Y034940D01*
X047360Y035500D02*
X047640D01*
X047500Y035360D02*
Y035640D01*
X047060Y036100D02*
X047340D01*
X047200Y035960D02*
Y036240D01*
X046060Y040500D02*
X046340D01*
X046200Y040360D02*
Y040640D01*
X046060Y038800D02*
X046340D01*
X046200Y038660D02*
Y038940D01*
X045960Y036900D02*
X046240D01*
X046100Y036760D02*
Y037040D01*
X039660Y032400D02*
X039940D01*
X039800Y032260D02*
Y032540D01*
X040260Y033000D02*
X040540D01*
X040400Y032860D02*
Y033140D01*
X038660Y030400D02*
X038940D01*
X038800Y030260D02*
Y030540D01*
X038160Y031100D02*
X038440D01*
X038300Y030960D02*
Y031240D01*
X033060Y029300D02*
X033340D01*
X033200Y029160D02*
Y029440D01*
X033060Y030900D02*
X033340D01*
X033200Y030760D02*
Y031040D01*
X033060Y030100D02*
X033340D01*
X033200Y029960D02*
Y030240D01*
X031260Y036000D02*
X031540D01*
X031400Y035860D02*
Y036140D01*
X032760Y036100D02*
X033040D01*
X032900Y035960D02*
Y036240D01*
X032360Y037100D02*
X032640D01*
X032500Y036960D02*
Y037240D01*
X033260Y036700D02*
X033540D01*
X033400Y036560D02*
Y036840D01*
X031960Y036300D02*
X032240D01*
X032100Y036160D02*
Y036440D01*
X040260Y037100D02*
X040540D01*
X040400Y036960D02*
Y037240D01*
X039460Y037100D02*
X039740D01*
X039600Y036960D02*
Y037240D01*
X038660Y037100D02*
X038940D01*
X038800Y036960D02*
Y037240D01*
X044560Y039700D02*
X044840D01*
X044700Y039560D02*
Y039840D01*
X047260Y037900D02*
X047540D01*
X047400Y037760D02*
Y038040D01*
X044560Y037900D02*
X044840D01*
X044700Y037760D02*
Y038040D01*
X047260Y039700D02*
X047540D01*
X047400Y039560D02*
Y039840D01*
X047260Y041500D02*
X047540D01*
X047400Y041360D02*
Y041640D01*
X044560Y041500D02*
X044840D01*
X044700Y041360D02*
Y041640D01*
M02*
